<?xml version="1.0" encoding="utf-8"?>
<!-- Generator: Adobe Illustrator 22.0.1, SVG Export Plug-In . SVG Version: 6.00 Build 0)  -->
<svg version="1.1" id="Camada_1" xmlns="http://www.w3.org/2000/svg" xmlns:xlink="http://www.w3.org/1999/xlink" x="0px" y="0px"
	 viewBox="0 0 1920 1080" style="enable-background:new 0 0 1920 1080;" xml:space="preserve">
<style type="text/css">
	.st0{fill:#FEFEFE;}
	.st1{fill:#6C6C6C;}
	.st2{fill:#727272;}
	.st3{fill:#848484;}
	.st4{fill:#CC5F28;}
	.st5{fill:#010101;}
	.st6{fill:#FDFDFD;}
	.st7{fill:#EDEDED;}
	.st8{fill:#EEEEEE;}
	.st9{fill:#E6E6E6;}
	.st10{fill:#DDDDDD;}
	.st11{fill:#CC6029;}
	.st12{fill:#D17929;}
	.st13{fill:#E2A027;}
	.st14{fill:#EBBB26;}
	.st15{fill:#EFEFEF;}
	.st16{fill:#F0F0F0;}
	.st17{fill:#CE752A;}
	.st18{fill:#CB732A;}
	.st19{fill:#DC9128;}
	.st20{fill:#DE9728;}
	.st21{fill:#EDC325;}
	.st22{fill:#BF662B;}
	.st23{fill:#BE642C;}
	.st24{fill:#DA8A28;}
	.st25{fill:#D68029;}
	.st26{fill:#E5AC27;}
	.st27{fill:#E3A527;}
	.st28{fill:#EEC625;}
	.st29{fill:#C66D2B;}
	.st30{fill:#DD9428;}
	.st31{fill:#EBBC26;}
	.st32{fill:#DA8827;}
</style>
<path d="M873.5,935.5c-20.2,0.1-40.2-2.1-60.2-3.7c-5.4-0.4-10.8-0.9-16.2-1.4c-18.5-1.8-35.2-8.7-50.8-18.6
	c-22.4-14.1-40.1-33-55.7-54.2c-18.8-25.6-33.9-53.4-46.9-82.3c-3-6.6-5.5-13.3-7.9-20.5c9.1,0,17.9,0,26.8,0c1.8,0,2.1,1.2,2.5,2.4
	c5.2,13.5,11.3,26.6,18,39.4c15.2,28.8,33.5,55.3,58.4,76.6c14.5,12.4,30.6,22,49.4,26c12.9,2.7,26,2.9,39-1
	c14.1-4.3,26.6-11.1,38.1-20.2c15.3-12.1,26.9-27.3,37.4-43.6c15.4-23.8,26.3-49.7,35-76.6c0.7-2.1,1.5-3.1,4-3
	c5.6,0.2,11.3,0.2,16.9,0c3.1-0.1,3,0.8,2.1,3.2c-3.4,9.1-6.7,18.2-10,27.4c-0.3,0.8-0.5,1.6-0.9,2.9c5.9-0.6,11.5-1.2,17-1.9
	c6.8-0.8,13.5-2.2,20.3-2.3c3.4-0.1,4.5,0.1,5.6-3.7c2-7.4,3.7-14.8,6.5-22c1-2.8,2.5-4,5.4-3.5c1.5,0.2,3,0,4.8,0
	c-3,9.7-5.9,19-9,28.3c-0.9,2.7-0.4,3.6,2.3,4.2c9.8,2,19.6,4.3,29.3,6.6c2.2,0.5,2.1-1.1,2.5-2c4.1-10.6,7.4-21.4,10.4-32.3
	c1.2-4.7,1.2-4.7,5.9-4.7c1.3,0,2.6,0,4.2,0c-2.9,13.4-7.3,26-12,38.8c4.3,0.3,8.3-0.2,12.3-0.5c7.9-0.6,15.7-1.3,23.6-1.9
	c1.2-0.1,1.6-0.6,2-1.6c4-10.3,7.5-20.7,10.1-31.4c0.7-2.9,1.8-3.5,4.5-3.4c5.4,0.2,5.5,0.1,4,5.2c-3,10.7-6.2,21.3-10.2,31.7
	c-0.7,1.9-0.7,2.8,1.5,3.4c6.2,1.8,12.3,4,18.6,5.6c3.5,0.9,6.6,2.5,10.1,3.3c1.5,0.3,1.8,0.1,2.2-1.1c4.2-12.3,8.5-24.7,12.8-37
	c0.7-2.1-0.7-2.2-1.8-2.5c-7.2-2.4-14.3-4.7-21.5-7c-1-0.3-2.1-0.4-3-1.6c9.2,0.3,18.3-1.2,26.9,2.8c0.7,0.3,1.8,0.9,2,0
	c0.8-4.5,4.3-2.3,6.6-2.8c0.8-0.2,1.7,0.1,2.6,0.1c-0.7,3.9-0.7,3.9,3.1,3.8c6.3-0.2,12.5-0.3,18.8-0.4c0.9,0,1.6-0.2,1.6-1.1
	c0.1-2.8,2-2.5,3.9-2.5c8.8,0,17.5,0,26.8,0c-0.7,2-1.3,3.7-1.9,5.5c-7.6,22.6-16.5,44.8-28.3,65.6c-11,19.4-23.4,37.9-38.7,54.3
	c-1.9,2.1-1.8,3.1,0.5,4.5c9.7,5.8,19.6,10.9,30.6,13.6c14.1,3.4,28.2,4.2,42.4,0c14.4-4.2,27-11.3,38.6-20.5
	c17.5-13.9,30.1-31.8,41.6-50.6c13.3-21.7,22.5-45.1,30.5-69.1c0.8-2.5,1.8-3.3,4.5-3.2c6,0.2,12.1,0.1,18.2,0.1
	c-2.6,11.4-6.7,22.1-10.9,33.4c6.1-0.7,11.9-1.3,17.6-2c6.7-0.8,13.3-1.6,20-2.4c0.1,0,0.2-0.1,0.3-0.1c4.5,2.4,4.2-1,5.1-3.8
	c2.5-7.5,4.4-15.1,6.4-22.7c0.5-1.7,1.1-2.4,3-2.4c7.5,0,7.5-0.1,5.3,6.9c-2.4,7.5-4.6,15.1-7.1,22.5c-0.6,1.8-0.3,2.4,1.5,2.8
	c9,1.9,17.9,4,26.9,5.9c5.3,1.1,5.4,1,7.3-4.2c3.6-9.9,6.9-20,9.3-30.3c0.6-2.9,1.7-3.8,4.6-3.7c5.4,0.3,5.5,0.1,4.1,5.4
	c-2.8,10.9-6.3,21.5-10.3,32c-0.1,0.4-0.2,0.8-0.4,1.4c1.8,0,3.5,0.1,5.2,0c10.2-0.8,20.5-1.7,30.7-2.4c1.3-0.1,1.6-0.8,1.9-1.7
	c4-10.5,7.6-21.1,10.2-32c0.5-2.1,1.3-2.8,3.4-2.7c2,0.2,4.1,0,6.6,0c-2.4,7.6-4.6,15-6.9,22.4c-1.6,4.9-3.2,9.8-5.1,14.7
	c-0.7,1.9-0.5,2.7,1.4,3.2c5.9,1.7,11.8,3.5,17.6,5.3c3.7,1.1,7.4,2.1,11,3.5c1.7,0.7,2,0,2.4-1.2c4.2-12.1,8.3-24.3,12.6-36.4
	c0.7-1.9,0-2.4-1.5-2.9c-7.1-2.3-14.2-4.6-21.2-6.9c-0.9-0.3-2-0.2-2.6-1.7c8.7,0.1,17.3-1.2,25.4,2.5c1.6,0.7,2.9,1.2,3.1-1.4
	c0.1-1.1,1-1.3,1.9-1.2c2.3,0,4.5,0,6.8,0c-0.6,4-0.6,4,3.3,3.9c6.2-0.1,12.3-0.4,18.5-0.4c1.1,0,1.7-0.2,1.8-1.2
	c0.3-2.1,1.6-2.4,3.4-2.3c8.9,0.1,17.8,0,26.6,0c0.7,0.7,0.1,1.3-0.1,1.8c-8.1,24.3-17.5,48.1-30.2,70.4
	c-11.6,20.4-24.9,39.9-41.3,56.8c-13.7,14-29.3,25.6-47.4,33.3c-4.4,1.8-9.1,2.7-13.5,4.6c-11.4,5.1-23.7,5.3-35.7,6.8
	c-16.8,2.1-33.7,3.9-50.7,5c-17.3,1.2-34.6,1.2-51.9,2c-1.2,0.1-2.4-0.3-3.5,0.5c-10.6,0-21.2,0-31.8,0c-5.6-0.8-11.2-0.1-16.8-0.3
	c-1.8-0.1-3.7,0-5.5,0c-18.4,0.1-36.7-0.6-55-2.5c-8.8-0.9-17.7-1-26.5-2.3c-11-1.6-21.6-5-31.8-9.9c-9.2-4.3-17.4-10.1-25.7-15.7
	c-2.4-1.7-4.2-1.7-6.6,0c-9.1,6.7-19.3,11.5-29.9,15.2c-3.5,1.2-7.1,2-10.2,4.1c-0.8,0.6-1.8,0.7-2.8,0.8
	c-12.4,1.7-24.8,3.8-37.3,4.9c-9,0.8-18,2.1-27.1,2.9c-7.4,0.6-14.9,1.2-22.3,1.6c-14.6,0.7-29.2,0.5-43.8,0.8
	c-3.8,0.2-7.7-0.4-11.5,0.3c-8,0-16,0-24,0c-4.9-0.7-9.9-0.1-14.8-0.3C879.7,935.6,876.6,936,873.5,935.5z"/>
<path d="M1605,405.4c-2.2,10.1-4.3,20.2-6.5,30.3c-2,9.4-3.5,19-6.2,28.1c-5.1,17.1-17.2,28.7-32.3,37.3
	c-15.1,8.6-31.4,12.4-48.7,12.4c-35.6,0-71.2,0-106.8-0.1c-2.7,0-3.9,0.6-4.4,3.5c-2.6,13.1-5.5,26.2-8.2,39.3
	c-0.9,4.3-1,8.7,3,11.5c4,2.8,8.1,1,11.9-1.3c5.8-3.5,9.5-8.8,11.3-15.3c5-18.1,17.4-27.6,36.2-27.6c30.6,0,61.3,0,91.9,0
	c12.8,0,22.5,6.8,26.1,18c1.3,4,1.6,8.1,0.9,12.2c-1.6,8.9-3.3,17.9-5.3,26.7c-3.2,13.9-11.4,24.6-22.4,33.2
	c-17.2,13.5-37,19.7-58.8,19.7c-52.7,0-105.4,0-158.2,0c-12.3,0-24.7,0-37-0.1c-10.1-0.1-19.8-2.1-29-6.1
	c-19.5-8.4-36.3-27.2-29.5-57.2c12.3-54.7,23.6-109.6,35.1-164.4c3.4-16.4,12.7-28.7,26-38.1c16.7-11.8,35.4-17.1,55.8-17.1
	c21.2,0,42.4,0,63.7,0c42.1,0,84.2,0,126.3,0c14.7,0,28.9,2.5,41.6,10.3c12.6,7.7,21,18.5,23.3,33.4c0,0.3,0.3,0.5,0.5,0.8
	C1605,398.5,1605,401.9,1605,405.4z"/>
<path class="st0" d="M933.4,935.5c23-0.6,46.1-1.1,69-3.4c16.5-1.7,32.9-3.6,49.3-5.7c3.8-0.5,7.6-1.7,11.5-1.7
	c2.6,0,3.9-2.3,6.1-2.9c14-3.9,27.1-9.9,38.8-18.8c1.2-0.9,2-1,3.3,0c11.4,8.6,23.5,16.2,36.9,21.2c9.6,3.5,19.6,5.9,29.9,6.6
	c18.8,1.2,37.5,3.4,56.3,4.2c5.6,0.2,11.2,0.3,16.9,0.5c0.3,0.1,0.4,0.2,0.3,0.3c-0.1,0.1-0.1,0.2-0.2,0.2c-106.1,0-212.2,0-318.3,0
	c-0.2-0.2-0.3-0.3-0.2-0.4C933.2,935.6,933.3,935.5,933.4,935.5z"/>
<path class="st1" d="M873.5,935.5c8.1-0.2,16.1-0.5,24.1,0.5c-8,0-16,0-24,0C873.6,935.9,873.5,935.7,873.5,935.5z"/>
<path class="st2" d="M1251.6,936.1c0-0.2-0.1-0.4-0.1-0.5c7.6-0.2,15.2-0.5,22.8,0.5C1266.8,936.1,1259.2,936.1,1251.6,936.1z"/>
<path class="st3" d="M933.4,935.5c0,0.2,0,0.4-0.1,0.5c-3.9,0-7.8,0-11.7,0C925.5,935.1,929.5,935.4,933.4,935.5z"/>
<path d="M1403.9,325.6c-11.1,0-22.2,0-33.4,0c0-0.3,0-0.6,0.1-0.6c5.1-2.4,4.8-2.3,3.3-8c-4-14.6-10.4-28.3-16-42.3
	c-0.7-1.9-1.1-2.4-3.5-1.6c-11.3,3.8-21.7,9.6-32.9,13.4c-2.1,0.7-2.1,1.6-1.4,3.4c4.7,10.8,8.5,21.9,11.8,33.2
	c0.7,2.5,0,2.7-2.1,2.7c-6.3-0.1-12.6-0.1-18.8,0c-1.8,0-2.7-0.5-3.3-2.3c-7.6-23.8-18.3-46.4-30.5-68.1
	c-15.2-27.1-33.8-51.7-58.7-71c-13.1-10.1-27.6-17.6-43.6-21.1c-17.4-3.8-30.6-3.1-49.7,4.6c0.1,0.2,0.1,0.5,0.2,0.6
	c27.8,26.8,47,59.2,62.3,94.3c8.6,19.7,15.5,40,21.8,60.5c0.7,2.2,0,2.5-2,2.5c-8.9-0.1-17.8,0-26.6,0c-0.6,0-1.7,0.2-1.9-0.1
	c-1.6-3.3-3.2-0.3-4.9-0.2c-3.8,0.3-7.6,0.1-12,0.1c3.7-3.2,7.6-5.3,11.5-7.3c1.1-0.6,1.9-1,1.3-2.7c-5.4-15.2-10.1-30.7-17.6-45.3
	c-5.2,3.9-10.4,7.8-15.7,11.5c-1.3,0.9-1.2,1.8-0.7,3c5.3,12.4,8.6,25.5,13,38.3c0.7,2.2,0.6,2.8-1.9,2.7c-6,0-6.1,0.1-7.9-5.7
	c-3.9-12.2-8.3-24.3-13-36.2c-0.6-1.7-1.3-2.4-3.3-2.8c-9.4-1.8-18.9-3.5-28.2-5.9c-3.9-1-8-1.6-12.3-2.5c2.1,5.5,4.2,10.7,6.2,15.9
	c2.9,7.7,5.9,15.3,8.7,23c0.8,2.1,1.5,3.3,4,3.9c8.5,2,16.8,4.7,25.2,7c3.2,0.9,6.4,1.7,9.6,3.2c-1.3,0-2.5,0-3.8,0
	c-3.6,0-7.2-0.2-10.7,0c-6.3,0.4-12.2-0.8-18.2-2.7c-0.8-0.3-3.5-1.8-2.3,1.6c0.4,1.3-0.7,1.2-1.3,1.1c-2.6-0.4-5.3,0.7-7.9-0.7
	c-0.9-0.5-2.4,0.6-3.7,0.6c-6.4,0.1-12.7,0-19.3-0.7c4.6-1.5,9.1-3.4,13.8-4.6c7.5-1.8,7.7-1.7,5.1-9c-4.5-12.5-8.7-25-14-37.2
	c-0.6-1.4-1-1.9-2.7-1.5c-9.9,2.3-19.8,4.3-29.7,6.4c-0.7,0.2-1.5,0.3-2.2,0.4c-2.1,0.4-2.6,1.2-1.7,3.5
	c5.2,13.1,10.2,26.3,14.1,39.9c0.7,2.5,0.1,2.8-2.2,2.8c-6-0.1-5.9,0-7.7-5.7c-4-12.4-8.3-24.7-13.2-36.8c-0.9-2.3-2.2-3.2-4.7-3.5
	c-13.1-1.7-25.9-4.8-39.3-6.1c1.5,3.9,2.8,7.9,4.4,11.6c4.9,11.1,8.5,22.6,12.3,34c0.7,2,1.6,2.7,3.5,2.9c5.5,0.8,11.1,1.2,16.5,3.1
	c-11,0.9-22.1,0.6-33.2,0.7c0-0.3,0-0.4,0-0.5c1.4-1.5,4.5-1.2,4.7-3.3c0.2-1.8-1.3-3.8-1.9-5.8c-3.9-14.5-10.3-28.1-15.9-42
	c-0.8-1.9-1.3-2.1-3.4-1.4c-11.3,3.8-21.7,9.6-32.9,13.4c-2,0.7-2.2,1.5-1.4,3.4c4.6,10.8,8.7,21.8,11.7,33.2
	c0.6,2.3,0.2,2.7-2.1,2.7c-6.2-0.1-12.3-0.1-18.5,0c-1.8,0-2.6-0.6-3.2-2.3c-8.1-23.8-18.9-46.3-30.9-68.3
	c-7-12.8-15.5-24.7-24.4-36.3c-13.9-18.2-30.5-33.4-50.2-45c-7.3-4.3-15.4-7.3-23.6-9.5c-9.9-2.7-19.9-3.6-30.1-2.7
	c-9.6,0.8-18.8,3.6-27.3,7.6c-21,10-37.9,25-51.9,43.6c-15.3,20.4-26.2,43.1-36.2,66.3c-6.1,14.2-10.4,29-14.5,43.9
	c-0.5,2-1.3,2.7-3.5,2.7c-8.3-0.2-16.7-0.1-25,0c-2.1,0-2.7-0.3-2.2-2.7c8-34.6,20.3-67.7,36.3-99.5c5.3-10.5,11.5-20.5,18.2-30.2
	c8.6-12.4,17.8-24.3,28.8-34.6c8.3-7.8,17.1-15.1,27.2-20.8c10.7-6,22-10.1,33.8-12.6c7.1-1.5,14.6-1.7,21.9-2.2
	c8.8-0.7,17.6-1.1,26.5-1.8c19.6-1.6,39.3-3.1,59-3.5c26.5-0.5,53-1.5,79.5-0.3c22.1,1,44,3,65.9,5.6c18.8,2.3,37.4,5.8,55.6,10.7
	c8.5,2.3,17.1,4.6,25,8.7c1,0.5,1.7,0.9,2.9,0.1c12-7.8,25-13.5,39-16.7c8.7-2,17.5-2.2,26.4-2.7c5.9-0.4,11.8-0.8,17.7-1.3
	c24.1-2.1,48.3-3.9,72.6-4.3c24.3-0.4,48.7-1.3,73.1-0.1c22,1,43.8,2.9,65.6,5.6c18.8,2.3,37.3,6,55.7,10.6
	c23.4,5.9,43.8,17.2,61.4,33.8c21.8,20.5,38,45,51.9,71.2c10,18.8,17.6,38.6,24.7,58.7c3,8.5,5.5,17.3,8.3,25.9
	c0.6,1.8,0.3,2.5-1.7,2.5c-9.1-0.1-18.2,0-27.3,0c-0.4,0-1.1,0.1-1.3-0.1c-1.8-3.1-3.6-0.3-5.5-0.1c-3.6,0.4-7.3,0.1-11.5,0.1
	c3.2-3.3,6.9-5.2,10.5-7c2.3-1.1,2.6-2.2,1.8-4.4c-5.4-14.7-9.8-29.7-17.3-43.9c-5.4,4-10.8,8-16.2,12c-1.2,0.9-0.4,1.8-0.1,2.5
	c5.2,12.3,8.4,25.4,12.9,38c0.8,2.3,0.7,3.1-2.1,3.1c-5.7-0.2-5.8,0-7.5-5.3c-3.9-12.4-8.4-24.5-13-36.6c-0.7-1.9-1.7-2.5-3.6-2.9
	c-10.1-1.9-20.1-3.9-30.1-6.4c-3.2-0.8-6.5-1.2-10.1-1.9c1.9,5,3.6,9.7,5.5,14.3c3.6,8.6,6.7,17.3,9.6,26.1c0.8,2.3,2.3,1.7,3.6,2.2
	c7.7,2.4,15.7,4,23.4,6.6c3.7,1.3,7.6,2.1,11.4,3.8c-1.2,0-2.4,0-3.6,0c-9.9-0.1-19.9,1-29.5-2.8c-1.1-0.5-2.8-0.8-2.1,1.6
	c0.3,0.9-0.1,1.3-0.9,1.2c-2.5-0.2-5.2,0.7-7.6-0.5c-1.3-0.7-2,0.3-3,0.3c-6.9,0-13.7,0-20.7-0.3c5.1-1.7,9.9-4.1,15.1-5.2
	c6.6-1.4,6.8-1.5,4.5-7.7c-4.8-12.8-9-25.9-14.5-38.4c-0.6-1.4-1-1.7-2.5-1.3c-9.7,2.2-19.4,4.2-29.1,6.3c-1.1,0.2-2.1,0.5-3.2,0.6
	c-2.1,0.3-2.4,1.3-1.6,3.3c5.3,13.1,10.1,26.4,14.1,39.9c0.8,2.5,0.3,3.1-2.3,3c-6-0.2-5.8-0.1-7.7-5.9
	c-4.1-12.5-8.4-24.9-13.4-37.1c-0.8-1.9-1.9-2.7-4-3c-12.7-1.9-25.4-4-38.1-6.1c-0.5-0.1-1-0.1-1.8-0.1c3.6,9,7.3,17.7,10.4,26.6
	c2.2,6.3,4.5,12.6,6.5,19c0.6,2.1,1.5,2.9,3.7,3.2C1393,323,1398.6,323.4,1403.9,325.6z"/>
<path d="M387.6,420.5c2.5-11.8,4.9-23,7.3-34.2c5-23.2,9.8-46.5,14.9-69.7c3.9-17.7,19.7-30.1,37.7-30.1c40.2,0,80.3,0,120.5,0
	c20.2,0,33.3,16.2,29.2,36c-17,80.7-34,161.5-51,242.2c-2.6,12.3-5.2,24.5-7.8,36.8c-4,19.1-21.1,32.3-39.1,32.1
	c-32.1-0.4-64.3-0.1-96.5-0.1c-19.7,0-30.6-7.4-38.2-25.6c-14.2-34.3-28.3-68.6-42.4-102.9c-0.3-0.8-0.6-1.6-1.2-3
	c-1.7,7.7-3.2,14.7-4.7,21.7c-5.8,27-11.5,54.1-17.6,81c-3.7,16.3-19.4,28.7-36.1,28.8c-40.9,0.1-81.8,0.2-122.8,0
	c-19.6-0.1-32.2-16.9-28-36.8c17.2-80.8,34.5-161.6,51.7-242.4c2.6-12.4,5.2-24.7,7.9-37.1c4-18,19.6-30.6,38-30.6c33,0,66,0,99.1,0
	c18.3,0,29,7.4,35.7,24.4c14.1,35.7,28.2,71.4,42.3,107.1C386.7,418.7,387,419.2,387.6,420.5z"/>
<path d="M1138.9,633.4c-16.3,0-32.7,0.2-49,0c-12.9-0.2-22.9-9-25.1-21.6c-1.1-6.5,0.6-12.7,1.9-18.9
	c11.4-53.8,22.9-107.5,34.3-161.3c0.6-2.7,1.4-5.4,1.3-8.3c-0.4-6.7-4.6-9.9-11-7.8c-9.2,3-14.2,10-16.2,19.1
	c-6,27.2-11.7,54.5-17.5,81.7c-6.5,30.4-13,60.8-19.5,91.2c-3.1,14.5-16.5,25.8-31.4,25.9c-32.5,0.2-64.9,0.2-97.4,0
	c-17.3-0.1-29-15-25.4-32c8.1-38.9,16.4-77.8,24.7-116.6c7.4-35.2,15-70.3,22.3-105.5c3.6-17.2,17-28.6,34.6-28.7
	c31.2-0.1,62.4,0,93.5,0c5.4,0,9.7,1.9,12.7,6.4c1.3,1.9,2.5,2,4.5,1.2c12.1-5.1,24.8-7.5,37.9-7.5c28.1,0,56.3,0,84.4,0
	c15.5,0,30.1,3.1,43,12.1c12.2,8.4,19.7,19.8,20.9,34.9c0.7,7.9-1.6,15.4-3.2,23c-10.7,50.3-21.5,100.5-32.2,150.8
	c-2.6,12.2-5.1,24.5-7.9,36.7c-3.1,13.9-16.6,25.1-30.9,25.3C1171.8,633.6,1155.3,633.4,1138.9,633.4z"/>
<path d="M760.7,350.5c31.8,0,63.7,0,95.5,0c14.4,0,28.2,2.5,40.6,10.3c16.5,10.3,25.6,24.9,23.4,44.7c-1.1,9.9-3.8,19.7-5.8,29.5
	c-1.7,8.4-3.3,16.7-5.3,25c-4.1,17.3-15.1,29.6-29.7,38.9c-16,10.2-33.7,14.7-52.6,14.7c-35.6,0-71.2,0-106.9-0.1
	c-2.7,0-3.6,0.8-4.2,3.4c-2.6,12.6-5.3,25.1-8,37.7c-0.5,2.3-0.7,4.7-0.5,7.1c0.6,5.8,4.4,8.6,9.9,7c9.4-2.7,14.3-9.6,16.7-18.6
	c1.7-6.3,4.7-11.8,9.3-16.4c6.6-6.5,14.6-10,23.9-10c31.7-0.1,63.4-0.1,95.2,0c17.7,0.1,29.3,14.2,26.2,31.6
	c-1.4,7.9-3,15.7-4.7,23.5c-3.9,18-15.1,30.6-30.1,40.1c-14.9,9.5-31.4,14.4-49.1,14.4c-65.7,0.1-131.4,0.1-197.1,0
	c-11.9,0-23.3-2.7-34-8.3c-17-8.9-31-26.9-25.2-53.3c12.2-55.5,23.8-111.1,35.6-166.7c3.4-15.9,12.4-27.9,25.2-37.2
	c16.8-12.2,35.9-17.6,56.6-17.6C697.2,350.5,729,350.5,760.7,350.5z"/>
<path class="st4" d="M1129.5,699c0-1.1,0-1.6,0-2.2c0.2-2.4-1.1-6.2,0.6-7c2.6-1.2,6.1-0.5,9.2-0.5c1.5,0,1.3,1.2,1.3,2.1
	c0.1,3.8,0.3,7.6-0.6,11.3c-0.5,1.9,0.1,3,1.7,3.9c4.5,2.6,8.9,5.3,13.4,7.9c1.5,0.9,1.8,1.4,0.3,2.8c-4.3,4.2-4.3,4.2-9.3,1.2
	c-2.8-1.7-5.5-3.4-8.3-5c-0.7-0.4-1.4-1.2-2.3-0.2c-5.1,5.8-12.1,7.2-19.3,8c-14.4,1.6-28.7,1.4-42.9-1.6c-6.5-1.4-10.2-5.6-11.6-12
	c-1.2-5.5-1.3-10.9-0.1-16.4c1-4.9,3.9-7.8,8.5-9.3c3.3-1.1,6.8-1.8,10.2-2.6c-0.3-1.1-1.3-1.4-1.9-1.9c-6.5-5.3-8.1-12.2-4.5-19.7
	c1.9-3.9,5.3-6.1,9.3-6.9c12.1-2.5,24.3-2.6,36.4-0.2c10.7,2.1,12.1,10.8,11.3,18.8c-0.1,0.9-0.5,1.4-1.4,1.3c-0.2,0-0.4,0-0.6,0
	c-2.6,0-5.5,0.7-7.7-0.2c-2.8-1.2-0.9-4.6-1.4-7c-1-4.6-2.2-6.2-6.8-6.9c-7.4-1.1-14.9-1.1-22.3,0c-3.1,0.4-6,1.4-7,4.8
	c-1.1,3.7-0.7,7.4,2.1,10.3c3.5,3.5,8,5.5,12.1,8c9.6,6,19.3,11.8,29,17.7C1127.6,698,1128.4,698.4,1129.5,699z"/>
<path d="M571.7,677.8c13.6-11.3,36.5-11.2,44.7,0.2c10.5-9.8,23-9.6,35.8-6.9c8.8,1.9,13.1,7.5,13.3,16.4c0.2,10.6,0,21.2,0.1,31.8
	c0,1.7-0.5,2.2-2.2,2.3c-8,0.3-8,0.4-8-7.7c0-8.8,0-17.5,0-26.3c0-7.9-2.7-10.7-10.5-11.5c-5.3-0.5-10.6-0.4-15.8,0.7
	c-6.7,1.4-9.8,4.7-10,11.6c-0.3,9.8-0.3,19.7-0.2,29.5c0,2.7-0.4,3.8-3.5,3.7c-6.8-0.3-6.8-0.1-6.8-7c0-8.7,0-17.3,0-26
	c0-8.5-3-11.7-11.4-12.5c-4.9-0.5-9.7-0.3-14.5,1.1c-6.9,2.1-10.5,6.8-10.6,14.2c-0.2,9.1-0.1,18.2,0,27.3c0,2.3-0.6,2.9-2.9,2.9
	c-7.4-0.1-7.4,0-7.4-7.4c0-13.7,0.1-27.5-0.1-41.2c0-2.1,0.6-3,2.7-2.6c0.1,0,0.2,0,0.3,0c2.3,0.2,5.5-1,6.8,0.5
	C572.6,672.2,571.7,675.2,571.7,677.8z"/>
<path d="M1212.3,715.3c0,8.1,0,15.4,0,22.7c0,5.3,0,5.3-5.2,5.3c-5,0-5,0-5-4.8c0-21.7,0-43.5-0.1-65.2c0-2.5,0.7-3.3,3-2.9
	c0.3,0.1,0.6,0,1,0c5.9,0,5.9,0,5.9,6c10-8.3,21.6-7.4,33.2-6c9.8,1.2,14.4,5.9,16.3,15.7c1.2,6.1,1.3,12.3,0.4,18.4
	c-1.4,10.2-6,15-16.3,16.9c-7.7,1.4-15.5,1.2-23.2-0.5C1218.8,720.1,1215.5,718.7,1212.3,715.3z"/>
<path class="st5" d="M422.2,715.2c0,9.1-0.1,17.1,0,25.1c0,2.2-0.3,3.2-2.9,3.1c-7.3-0.2-7.3,0-7.3-7.2c0-20.9,0.1-41.8-0.1-62.6
	c0-2.8,0.8-3.5,3.4-3.2c2,0.2,4.5-0.6,6.1,0.3c1.7,1,0.1,3.7,0.5,5.4c12.5-8.4,25.8-7.8,39.4-3.8c5.3,1.6,8.1,6,9.4,11.1
	c2,7.9,2.1,15.9,0.5,23.8c-1.5,7.5-6.1,12.2-13.7,13.8c-8.5,1.8-17,1.8-25.4-0.1C428.6,720.1,425.3,718.6,422.2,715.2z"/>
<path class="st5" d="M384.5,695.8c-0.2-4.7,0.2-8.7-0.6-12.6c-0.8-3.7-2.8-6.1-6.5-6.7c-7.6-1.4-15.3-1.5-22.8,0.4
	c-3.5,0.9-6.6,2.4-6.6,6.8c0,1.2-0.7,1.1-1.5,1.1c-1.7,0-3.5-0.1-5.2,0c-2.9,0.3-3.9-0.4-3.3-3.7c1-5.5,4-8.9,9.3-9.9
	c11.9-2.3,23.9-2.4,35.8,0.1c7.8,1.7,11.4,6.3,11.5,15c0.2,11,0.1,22.1,0.1,33.1c0,0.7,0.3,1.9-0.6,2c-3,0.2-6,0.1-9.1,0
	c-0.7,0-0.4-0.8-0.4-1.3c0.1-1.1,0.3-2.3,0.4-3.3c-13.1,7.1-26.7,7.1-40.3,3.1c-9.5-2.8-12.9-12.3-8.5-21.2c2-3.9,5.5-5.8,9.5-6.6
	c10.3-2.1,20.6-2.2,30.9-0.2C379.5,692.3,382,693.2,384.5,695.8z"/>
<path class="st5" d="M534.7,716.4c-9.1,6.4-19.2,6.2-29.3,5.7c-4.3-0.2-8.6-0.9-12.6-2.7c-6.4-2.9-8.9-7.4-8.4-14.9
	c0.5-6.5,3.6-10.6,10.2-12.2c11-2.6,22.1-2.5,33.1-0.2c2.2,0.5,4.1,1.7,6.3,3.4c0.1-4.6,0.2-8.6-0.6-12.7c-0.7-3.4-2.8-5.6-6.2-6.3
	c-8-1.5-15.9-1.6-23.8,0.5c-3.2,0.9-5.8,2.6-6,6.4c0,0.1,0,0.3,0,0.3c-2.6,2.4-5.8,0.6-8.7,1c-2.2,0.3-1.2-1.6-1.1-2.5
	c0.4-5.9,3.4-9.7,9.3-10.9c11.9-2.4,23.9-2.4,35.8,0.1c7.6,1.6,11.3,6.2,11.4,14c0.2,11.4,0.1,22.7,0.1,34.1c0,1.8-0.6,2.3-2.3,2.1
	c-1-0.1-1.9,0-2.9,0C534.2,721.6,534.2,721.6,534.7,716.4z"/>
<path class="st5" d="M1386.3,697.3c-7.5,0-14.9,0.1-22.4,0c-2,0-2.8,0.5-2.5,2.5c0.3,2.4,0.5,4.7,0.8,7.1c0.8,4.9,3.7,7.6,8.6,8.3
	c8.1,1.2,16.2,1.1,24.3,0c4.1-0.6,5.8-2.4,6.1-6.7c0.2-2,0.8-2.6,2.7-2.4c1.4,0.2,2.8,0,4.2,0c4.2,0,4.2,0,3.6,4.1
	c-0.8,5-3.7,8.2-8.4,9.6c-9.3,2.8-18.8,2.7-28.3,2.2c-3.6-0.2-7.1-0.7-10.6-1.4c-7.6-1.6-11.4-6.3-12.8-13.6
	c-1.2-6.7-1.4-13.3-0.5-20c1.4-10.2,5.4-14.5,16-16.3c10.5-1.8,21.2-1.6,31.6,0.6c8,1.7,11.6,6,12.6,14.7c0.3,2.8,0.3,5.6,0.5,8.4
	c0.2,2.2-0.5,3-2.8,3C1401.5,697.2,1393.9,697.3,1386.3,697.3z"/>
<path d="M717.7,697.3c-7.5,0-14.9,0.1-22.4,0c-2.1,0-2.7,0.5-2.7,2.7c0.5,12.6,3.4,15.6,16,15.9c5.7,0.1,11.5,0.3,17.2-0.6
	c4.6-0.8,6.4-2.5,6.7-7.2c0.1-1.6,0.5-2.1,2-2c1.5,0.1,3,0,4.5,0c4.3,0,4.7,0.4,3.8,4.8c-1.1,5.5-4.9,8.2-9.9,9.5
	c-9,2.2-18.2,2.2-27.4,1.7c-3.8-0.2-7.5-0.8-11.2-1.7c-5.7-1.5-9.5-5.1-10.9-10.8c-2.1-8.4-2.1-16.9-0.5-25.4
	c1.7-8.8,7.9-12.5,16-13.6c10-1.4,20.1-1.4,30,0.5c8.6,1.6,12.2,5.5,13.5,14.2c0.6,3.9,2,8.6,0.1,11.3c-1.6,2.3-6.6,0.6-10.1,0.7
	C727.4,697.4,722.6,697.3,717.7,697.3z"/>
<path d="M157.2,697.3c-7.5,0-14.9,0.1-22.4-0.1c-2.4,0-2.9,0.8-2.7,3c0.8,12.7,3.5,15.4,16.2,15.7c5.6,0.1,11.2,0.3,16.8-0.6
	c4.7-0.8,6.5-2.5,6.8-7.2c0.1-1.8,0.8-2.1,2.3-2c1.5,0.1,3,0,4.5,0c4.3,0,4.3,0.1,3.6,4.4c-1,5.6-4.7,8.6-9.9,9.8
	c-9,2.2-18.2,2.3-27.4,1.7c-3.8-0.2-7.5-0.7-11.2-1.7c-5.7-1.5-9.5-5-11-10.7c-2.1-8.5-2.2-17.1-0.5-25.7
	c1.5-7.3,6.1-11.4,13.3-12.8c11.2-2.2,22.4-2,33.5,0.1c7.7,1.5,11.2,5.5,12.5,13.3c0.6,3.5,0.7,7.1,0.8,10.7c0,1.8-0.7,2.3-2.2,2.1
	c-0.1,0-0.2,0-0.3,0C172.3,697.3,164.8,697.3,157.2,697.3z"/>
<path class="st5" d="M221.9,669.7c6.9-0.2,13.5,0.1,19.9,2.1c4.6,1.4,8.6,3.7,9.4,9.1c0.3,1.9,0,3.2-2.4,2.9c-1.1-0.2-2.2-0.1-3.2,0
	c-2.6,0.2-5,0.4-5.2-3.5c-0.1-2.3-2.2-3.3-4.4-3.6c-8.4-1.1-16.8-1.1-25.2-0.1c-3.2,0.4-5,2.2-5.5,5.4c-0.6,4,0.8,7,3.8,8.6
	c2,1,4.1,1.3,6.3,1.4c7.8,0.4,15.6,0.6,23.3,1.2c8,0.7,12.9,4.5,14.3,10.6c1.9,8.3-1.8,14.9-10.1,16.7c-13.1,2.8-26.2,2.7-39.3-0.1
	c-6.8-1.4-9.8-5.7-9.8-12.6c0-1.7,0.3-2.7,2.3-2.4c0.7,0.1,1.5,0,2.3,0c1.8,0,3.9-0.5,5.5,0.2c1.7,0.7,0.6,3.1,1.1,4.7
	c0.9,2.8,2.8,4.4,5.5,4.9c8.6,1.4,17.3,1.3,25.8-0.1c4.8-0.8,6.7-3.9,6.2-9c-0.4-4.2-3.1-6.8-7.9-7c-8.1-0.3-16.2-0.2-24.3-1.3
	c-1.3-0.2-2.6-0.4-3.8-0.6c-9.8-1.8-14-8.3-11.5-17.9c1-4,3.6-6.6,7.6-7.6c1.6-0.4,3.1-0.9,4.7-1.1
	C212.2,669.9,217.2,669.6,221.9,669.7z"/>
<path d="M908.6,669.7c6.1-0.1,11.5,0.2,16.8,1.3c9.1,1.9,12.3,5.1,13.8,14.2c1.3,7.5,1.2,15.1-0.1,22.6c-1.2,7-5,11.5-12.2,12.9
	c-11.7,2.3-23.4,2.2-35.1,0.1c-7.5-1.4-11.3-6.1-12.5-13.3c-1.2-6.8-1.3-13.6-0.4-20.3c1.5-11.3,5.8-15.3,17.1-16.6
	C900.5,669.9,904.9,669.6,908.6,669.7z"/>
<path d="M1527.4,722.3c-6.7-0.1-13.4-0.3-20-1.9c-7-1.8-10.2-6.2-9.8-13.2c0.1-1.4,0.4-2,1.8-1.8c0.7,0.1,1.5,0,2.3,0
	c1.9,0,4.1-0.5,5.8,0.2c1.8,0.8,0.7,3.3,1.3,5c1,3,3.2,4.3,6,4.7c8.3,1.3,16.6,1.2,24.9-0.2c4.7-0.7,6.9-3.7,6.7-8.4
	c-0.2-4.5-2.8-7.3-7.6-7.6c-6.3-0.4-12.5-0.4-18.8-0.7c-4.5-0.2-9.1-0.7-13.4-2.1c-5.7-1.8-8.4-6-8.2-12.8
	c0.1-6.8,2.6-10.6,8.7-11.9c12.8-2.7,25.8-3,38.6,0.3c4.4,1.1,8.3,3.4,9.3,8.4c0.5,2.3,0.3,4.1-2.9,3.6c-0.9-0.2-2-0.1-2.9,0
	c-2.7,0.3-4.7,0.1-4.8-3.5c-0.1-1.7-1.5-3.1-3.5-3.4c-9.1-1.4-18.3-1.5-27.4,0c-3,0.5-3.9,2.8-4.3,5.4c-0.5,3.5,0.8,6.6,3.5,8.1
	c1.9,1.1,4,1.4,6.2,1.5c7.8,0.3,15.6,0.7,23.3,1.1c2.4,0.1,4.7,0.8,6.9,1.7c6.1,2.6,8.5,7,8,14.4c-0.4,5.8-3.6,9.6-9.6,11.2
	C1540.8,722.1,1534.1,722.3,1527.4,722.3z"/>
<path class="st5" d="M979.7,669.7c6.7-0.2,13.4,0.1,19.9,2.2c4.5,1.5,8.6,3.7,9.1,9.3c0.2,1.9-0.2,2.9-2.4,2.6
	c-1.1-0.2-2.2-0.1-3.2,0c-2.6,0.1-5.1,0.5-5.2-3.6c0-2.4-2.4-3.4-4.7-3.6c-8.2-0.9-16.4-1.1-24.6,0c-4,0.5-5.3,2-5.8,5.8
	c-0.5,3.9,0.9,6.8,4.1,8.4c1.9,0.9,3.9,1.2,6,1.3c7.7,0.4,15.3,0.7,23,1.1c2.4,0.1,4.7,0.8,6.9,1.7c5.9,2.6,8.4,7,7.9,14.1
	c-0.4,6.1-3.5,9.9-9.6,11.4c-9.3,2.3-18.9,2.2-28.4,1.7c-4.4-0.3-8.8-0.6-13.1-2.1c-6-2.1-8.9-6.8-8.3-13.1c0.1-1.1,0.4-1.6,1.5-1.5
	c0.9,0.1,1.7,0,2.6,0c1.9,0,4.2-0.6,5.8,0.2c1.7,0.8,0.7,3.3,1.3,5c0.9,2.7,2.8,4.1,5.4,4.5c8.6,1.4,17.3,1.3,25.8-0.1
	c4.6-0.8,6.7-4,6.3-8.7c-0.3-4.3-2.9-7-7.6-7.3c-6.2-0.4-12.3-0.4-18.5-0.7c-4.3-0.2-8.6-0.6-12.8-1.8c-6.7-1.9-9.4-6-9.1-13.7
	c0.2-6.7,3.3-10.3,9.9-11.7C967.8,669.9,973.8,669.6,979.7,669.7z"/>
<path class="st5" d="M767.3,677.3c3.8-4.7,8.7-6.3,14.1-7c8-1,16-1,23.9,0.8c6.4,1.5,9.5,5,10.6,11.5c1,6.7,0.4,13.4,0.5,20.1
	c0.1,5.4-0.1,10.8,0.1,16.2c0.1,2.2-0.7,2.7-2.7,2.7c-7.6,0-7.6,0.1-7.6-7.5c0-9.2,0-18.4,0-27.6c0-6.4-2.3-9.2-8.6-10.1
	c-6-0.9-12.1-0.9-18.1,0.5c-8,1.9-11.7,6.6-11.7,14.8c0,9-0.1,18,0,26.9c0,2.1-0.3,3-2.7,3c-7.5-0.1-7.5,0-7.5-7.6
	c0-13.6,0-27.3,0-40.9c0-2,0.4-3.1,2.6-2.7c0.1,0,0.2,0,0.3,0c2.2,0,4.9-0.7,6.3,0.3C768.3,671.9,766.7,674.7,767.3,677.3z"/>
<path d="M1286.9,677.1c4.2-5.2,9.9-6.5,15.9-7.1c7.3-0.7,14.7-0.7,21.9,1c6.4,1.5,9.9,5,10.5,11.5c1.2,12.4,0.8,24.9,0.2,37.3
	c-0.2,3.7-5.2,0.8-8,1.6c-2,0.6-1.9-1-1.9-2.3c0-10.4,0-20.8,0-31.2c0-1.6-0.1-3.2-0.4-4.8c-0.7-3.3-2.6-5.5-5.8-6.2
	c-7.6-1.6-15.3-1.7-22.7,0.7c-6.2,2-9.3,6.3-9.3,12.9c-0.1,9.3-0.1,18.6,0,27.9c0,2.3-0.3,3.2-2.9,3.2c-7.4-0.1-7.4,0-7.4-7.4
	c0-13.7,0-27.5-0.1-41.2c0-2.1,0.5-2.9,2.7-2.6c2.2,0.2,5-0.6,6.6,0.4C1287.8,671.7,1286.2,674.7,1286.9,677.1z"/>
<path d="M1473.5,715.4c-7.8,7.2-17.5,7.1-27.1,6.7c-3.3-0.1-6.6-0.8-9.8-2.1c-6.6-2.7-10.1-7.6-10.2-14.7c-0.1-10.9,0-21.8-0.1-32.8
	c0-1.6,0.3-2.2,2.1-2.2c8.2-0.2,8.2-0.3,8.2,7.9c0,8.8-0.1,17.5,0,26.3c0.1,8.2,2.7,10.9,10.8,11.3c4.6,0.2,9.3,0.3,13.9-0.5
	c8.2-1.5,11.7-5.2,11.8-13.6c0.2-9.5,0.2-19,0-28.5c0-2.3,0.6-2.9,2.9-2.8c7.5,0.1,7.5,0,7.5,7.5c0,13.6-0.1,27.3,0.1,40.9
	c0,2.3-0.7,3.2-2.9,2.8c-0.2,0-0.4,0-0.6,0c-2,0-4.6,0.6-6-0.3C1472.2,720.1,1474.5,717.5,1473.5,715.4z"/>
<path d="M294.8,675.8c-3.6,0.1-7.3,0.2-11.1,0.9c-4.3,0.9-6.9,3.4-7.7,7.7c-1.4,7.3-1.4,14.6-0.2,21.9c0.8,5.1,3.8,7.8,8.7,8.7
	c7.1,1.2,14.2,1.3,21.3,0.3c6.3-0.9,8.1-3,8.3-9.4c0.1-2.5,0.8-3.3,3.1-2.9c1,0.1,1.9,0,2.9,0c4.9,0,5.1,0.2,4.3,5.1
	c-0.7,4.9-3.6,8.2-7.9,10.4c-4.4,2.2-9.2,3-14.1,3.4c-8.1,0.7-16.2,0.4-24.2-1.2c-7.4-1.5-11.7-5.9-13.1-13.3
	c-1.4-7.4-1.6-14.9-0.1-22.2c1.8-9,6.3-13,16.3-14.6c9.9-1.5,19.8-1.4,29.7,0.5c7.9,1.5,11.9,6.3,12.3,13.7c0.1,1.8-0.3,2.7-2.2,2.4
	c-0.6-0.1-1.3,0-1.9,0c-1.7,0-3.6,0.4-5.1-0.2c-2-0.7-0.7-3-1.2-4.6c-1-3.1-3.2-4.8-6.2-5.5C302.8,676.1,298.9,676.1,294.8,675.8z"
	/>
<path d="M833.2,694.7c0-5-0.2-10,0.1-14.9c0.1-2.7-0.9-3.4-3.3-3.1c-1.1,0.1-2.2-0.1-3.2,0c-2.7,0.4-3.3-0.7-3.4-3.3
	c-0.1-3.2,1.4-3.1,3.6-3c6.2,0.1,6.2,0,6.2-6.1c0-6.1,0-5.9,6.2-6.2c3.4-0.2,4.3,0.9,4,4.1c-0.2,2.7-0.9,6.2,0.4,7.8
	c1.4,1.7,5.1,0.5,7.8,0.5c5.3,0.1,10.6,0.2,15.9-0.1c2.7-0.1,3,0.9,2.9,3.1c-0.1,1.9,0.2,3.4-2.8,3.3c-7.2-0.2-14.5,0-21.7-0.1
	c-2,0-2.6,0.5-2.6,2.5c0.1,9.4,0,18.8,0.1,28.2c0.1,5.7,2.7,8.3,8.3,8.5c1.4,0.1,2.8,0.1,4.2-0.1c4.9-0.4,7.1-2.9,7.3-7.7
	c0.1-4.7,0.1-4.7,4.9-4.7c5,0,5,0,4.8,5c-0.2,6.2-3.4,10.7-9.4,12.5c-7.5,2.3-15.2,2.1-22.6-0.5c-5.3-1.9-7.6-5.4-7.7-11.1
	C833.2,704.4,833.2,699.5,833.2,694.7z"/>
<path class="st0" d="M1310.8,832.1c6.4-11.7,11.5-23.8,16.7-35.9c0.5-1.1,1.1-1.4,2.2-1.6c12.2-1.5,24.4-3.1,36.6-4.6
	c1.1-0.1,2.1-0.2,3.3,0.3c-1.8,6.8-4.3,13.3-6.9,19.7c-2.2,5.4-4.5,10.7-6.8,16.1c-0.4,1.1-0.7,2.5-2.4,1.8
	c-5.4-2.2-10.6,0.1-15.9,0.7c-8.2,0.9-16.2,2.3-24.4,3.5C1312.6,832.2,1311.8,832.1,1310.8,832.1z"/>
<path class="st0" d="M932.6,832.4c6.6-12.1,11.6-24.1,16.8-36c0.5-1.2,1.2-1.6,2.4-1.8c12.2-1.5,24.4-3,36.6-4.6
	c2.8-0.4,3.4,0.3,2.5,3.2c-3.5,11.5-8.8,22.2-13.2,33.3c-0.4,1.1-0.9,2-2.3,1.4c-5.4-2.2-10.6,0.1-15.9,0.7
	C950.9,829.6,942.1,831.1,932.6,832.4z"/>
<path class="st0" d="M1034,800.5c-4.1,11.7-9.3,22.8-14.6,33.9c-1.1,2.2-2.9,1.8-4.7,1.4c-5.9-1.2-11.8-2.4-17.7-3.6
	c-3.4-0.7-6.8-1.4-10.1-2c-1.8-0.3-0.9-1.3-0.5-2.1c5.1-11.1,9.4-22.4,13.3-34c0.5-1.4,1.2-1.6,2.4-1.3
	C1012.7,795.2,1023.5,796.9,1034,800.5z"/>
<path class="st0" d="M1412,800.5c-4,11.6-9.2,22.6-14.4,33.6c-1,2.2-2.8,2.1-4.6,1.7c-9.1-1.8-18.1-3.9-27.2-5.6
	c-2.1-0.4-2.1-0.9-1.3-2.6c5-10.9,9.3-22,13.1-33.4c0.5-1.5,1.1-1.9,2.5-1.6C1390.7,795.3,1401.6,796.9,1412,800.5z"/>
<path class="st0" d="M910.3,868.2c6.7-9.5,12.3-18.8,17.8-28.3c0.7-1.1,1.5-1.3,2.6-1.5c12.9-1.9,25.9-3.7,38.8-5.6
	c1.6-0.2,3.2,0.3,5,0.8c-6.1,10.5-11.3,21.3-18,31.3c-0.8,1.1-1.6,1.3-2.7,0.9c-3.4-1.2-7-1.7-10.4-2.2c-3.6-0.5-7.4,0.7-11.1,1.3
	C925.2,865.9,918.1,867,910.3,868.2z"/>
<path class="st0" d="M1288.3,868.2c6.7-9.5,12.2-18.7,17.6-28c0.6-1,1.3-1.5,2.5-1.7c13-1.8,26.1-3.8,39.1-5.6
	c1.4-0.2,3,0.3,4.4,0.4c0.5,1.2-0.3,1.8-0.7,2.5c-5.4,9.4-10.2,19.3-16.3,28.4c-1.1,1.6-2.1,2.2-3.9,1.6c-3.3-1.2-6.8-1.7-10.1-2.1
	c-3.5-0.4-7.2,0.8-10.8,1.3C1303.1,865.9,1296.1,867,1288.3,868.2z"/>
<path class="st0" d="M1458.7,797.4c-2.6,6.6-5,12.7-7.5,18.7c-2.1,4.9-4.3,9.6-6.5,14.4c-0.3,0.7-0.3,1.9-1.6,1.6
	c-6.2-1.6-12.2,0.5-18.2,1.1c-5.9,0.6-11.8,1.2-18.3,1.8c2.8-5.6,5.1-10.8,7.2-16.2c2.2-5.6,4.5-11.2,6.8-16.8
	c0.4-1,0.6-2.3,2.2-2.4C1434.5,799,1446.4,798.2,1458.7,797.4z"/>
<path class="st0" d="M1028.6,835c5.5-11.3,9.6-22.4,14.1-33.4c0.4-1,0.8-1.9,2.2-2c11.8-0.7,23.6-1.8,35.9-2
	c-2.9,7.1-5.7,13.9-8.5,20.6c-1.7,4.1-3.6,8.1-5.4,12.1c-0.3,0.7-0.3,2.1-1.8,1.7c-6-1.6-11.8,0.5-17.6,1
	C1041.3,833.7,1035.2,834.3,1028.6,835z"/>
<path class="st0" d="M1467.3,799.8c1.2,0.3,1.8,0.4,2.5,0.6c8.7,3.2,17.6,5.9,26.5,8.4c2.5,0.7,2.8,1.7,1.6,4
	c-4.8,9.4-8.1,19.5-13.8,28.5c-0.9,1.5-1.7,2-3.6,1.6c-9-2-17.5-5.3-26.4-7.4c-1.8-0.4-2.5-0.9-1.4-2.9c5.2-9.9,9.6-20.2,13.6-30.7
	C1466.4,801.1,1466.3,799.7,1467.3,799.8z"/>
<path class="st0" d="M1120.9,810.4c-0.2,0.5-0.3,0.7-0.4,0.9c-5,10-8.6,20.7-14.6,30.3c-0.9,1.5-1.8,1.6-3.4,1.3
	c-9-1.9-17.5-5.3-26.4-7.4c-1.8-0.4-2.5-0.9-1.4-2.9c5.2-9.8,9.6-20,13.4-30.5c0.7-1.8,1.4-2.5,3.5-1.8c9.1,3,18.2,5.9,27.4,8.8
	C1119.6,809.4,1120.7,809.4,1120.9,810.4z"/>
<path class="st0" d="M1366.9,872.3c-5.9-1.1-11.9-2.3-17.8-3.4c-1-0.2-1.9-0.6-2.8-0.8c-4.2-0.9-4.3-1-1.7-4.7
	c5.8-8.4,11.1-16.9,15.3-26.2c0.6-1.3,1.2-2.2,2.9-1.8c9.7,2.2,19.6,3.3,29.2,5.9c1.6,0.4,1.3,1,0.7,2c-5.2,9.4-11.1,18.5-17.5,27.2
	c-0.6,0.9-1.4,1.2-2.4,1.2c-1.9,0-3.9,0.2-5.8,0.3C1366.9,872.1,1366.9,872.2,1366.9,872.3z"/>
<path class="st0" d="M988.7,872.3c-6.1-1.2-12.3-2.3-18.4-3.7c-2-0.4-5.1,0.1-5.6-1.5c-0.5-1.7,1.8-3.6,3-5.4
	c5.3-7.7,10.2-15.8,14.1-24.3c0.8-1.7,1.6-2.3,3.4-1.9c9.3,2.3,18.9,3.2,28.2,5.7c2.2,0.6,1.7,1.2,0.9,2.5
	c-5.1,9.2-10.8,17.9-17,26.4c-0.6,0.9-1.3,1.6-2.6,1.6C992.8,871.8,990.8,871.6,988.7,872.3z"/>
<path class="st6" d="M1077.3,879.4c-1.9-0.5-4.1-1.1-6.3-1.6c-6.1-1.5-12.1-3.1-18.2-4.5c-1.9-0.4-2.4-0.8-1.1-2.6
	c6.9-9,12.7-18.7,18.2-28.7c0.9-1.7,1.9-1.9,3.6-1.4c8.6,2.4,17.3,4.7,25.9,6.9c2,0.5,2.4,1.2,1.2,3c-6.5,9.4-12.2,19.3-20.2,27.6
	C1079.5,879,1078.7,879.4,1077.3,879.4z"/>
<path class="st0" d="M1455.3,879.4c-1.9-0.5-4.1-1.1-6.2-1.6c-6.3-1.6-12.5-3.2-18.8-4.7c-1.6-0.4-1.7-0.9-0.8-2.1
	c7-9.3,13-19.3,18.7-29.5c0.8-1.4,1.5-1.4,2.8-1c8.8,2.4,17.7,4.8,26.6,7c2,0.5,2.1,1.3,1.1,2.8c-6.4,9.6-12.4,19.5-20.4,27.9
	C1457.5,879.1,1456.6,879.4,1455.3,879.4z"/>
<path class="st0" d="M1007.2,870.5c7-9.4,12-19.1,17.5-28.5c0.7-1.2,1.5-1.3,2.6-1.4c11.1-1,22.1-2,33.2-3c0.6-0.1,1.4-0.3,1.8,0.3
	c0.5,0.6-0.2,1.2-0.5,1.7c-5.7,10-11.6,19.9-18.5,29.2c-0.9,1.2-1.7,1.5-3,1c-5.9-2.6-12-1.3-18.1-0.7
	C1017.5,869.4,1012.8,869.4,1007.2,870.5z"/>
<path class="st0" d="M1440.9,837.7c-6.2,11.1-12.4,21.5-19.8,31.3c-0.7,0.9-1.4,1.3-2.5,0.8c-5.3-2.3-10.7-1.5-16.2-1.1
	c-5.5,0.4-11,1-16.8,1.5c1.7-2.7,3.3-5.3,5-7.8c4.5-6.2,7.5-13.3,11.7-19.8c0.8-1.3,1.5-2,3.2-2.1c11.2-0.6,22.4-1.9,33.5-3
	C1439.5,837.5,1439.9,837.6,1440.9,837.7z"/>
<path class="st6" d="M1510.1,804.4c5.3-13,9.6-25.6,13.4-38.4c0.3-1.1,0.8-1.6,2-1.6c7.3,0,14.7,0,22.3,0c-1.3,3.5-2.5,7.4-4,11.1
	c-3.7,8.7-7.7,17.3-11.4,26c-0.7,1.6-1.5,1.9-3.3,2.1C1522.9,804.5,1516.8,803.4,1510.1,804.4z"/>
<path class="st0" d="M1169.8,764.4c-1.6,5-3.5,10.1-5.7,15.1c-3.3,7.4-6.6,14.7-9.8,22.2c-0.6,1.5-1.4,1.8-3,2
	c-6.2,0.7-12.5-0.2-19.1,0.6c1.4-3.6,2.6-6.8,3.8-10c3.5-8.9,6.4-18,9.1-27.2c0.6-1.9,1.3-2.8,3.5-2.7
	C1155.6,764.5,1162.6,764.4,1169.8,764.4z"/>
<path class="st0" d="M1270.4,889.7c4.6-4.6,8.1-9.4,11.9-13.9c1.5-1.8,3.7-1.7,5.6-2c10.6-1.4,21-3.7,31.7-4.3
	c3.3-0.2,6.6,0.6,10.1,1.9c-4.9,6.3-10.5,11.9-15.7,17.8c-0.8,1-1.8,0.5-2.7,0.3c-3.7-0.7-7.4-1.3-11.1-2.2
	c-8.3-2-16.3,0.6-24.4,1.6C1274.4,889.2,1272.7,889.4,1270.4,889.7z"/>
<path class="st0" d="M951.8,871.4c-4.9,6.4-10.4,11.8-15.5,17.7c-0.8,0.9-1.7,0.7-2.7,0.5c-3.8-0.8-7.6-1.4-11.4-2.3
	c-8.2-2-16.1,0.7-24.1,1.6c-1.7,0.2-3.4,0.5-5.4,0.8c4.2-5,8-9.8,12.1-14.4c1.3-1.5,3.6-1.3,5.5-1.6c10.4-1.4,20.6-3.7,31.1-4.2
	C945,869.4,948.3,870.2,951.8,871.4z"/>
<path class="st0" d="M930.2,894.8c-6.4,6.2-13.3,11-20.7,15c-0.9,0.5-1.9,0.4-2.8,0.4c-11.5,0-23.1,0-34.6,0
	c-0.1-0.4-0.2-0.8-0.4-1.2c3.2-2.9,6.6-5.5,9.6-8.6c3.2-3.2,6.9-4.3,11.2-4.8c7-0.8,14-2.3,21-3.3c3.9-0.6,7.6,0.8,11.5,1.3
	C926.6,893.7,928.2,894.3,930.2,894.8z"/>
<path class="st0" d="M1249.7,908.9c4.4-3.8,8.7-7.7,13.1-11.5c1.7-1.4,4-1.3,6.2-1.7c7.6-1.2,15.1-2.6,22.7-3.6
	c3.8-0.5,7.5,0.8,11.2,1.3c1.7,0.2,3.3,0.8,5.2,1.3c-6.4,6.2-13.3,11.1-20.8,15.1c-0.7,0.4-1.7,0.3-2.5,0.3c-11.6,0-23.1,0-34.7,0
	C1249.9,909.8,1249.8,909.3,1249.7,908.9z"/>
<path class="st0" d="M1074.1,884.4c-5.7,6.4-11.9,11.8-18.9,16c-4,2.4-8.6,1.4-12.8-0.3c-3.6-1.5-7.4-2.1-11.1-3
	c-1.8-0.4-2.3-0.9-1-2.4c0.7-0.8,1.3-1.7,2.1-2.4c3.7-3.8,8-7.1,11.1-11.3c2.5-3.4,4.8-3.8,8.5-2.7
	C1059.2,880.6,1066.5,882.4,1074.1,884.4z"/>
<path class="st6" d="M1452.2,884.4c-5.8,6.5-12,11.9-19,16c-4,2.4-8.6,1.4-12.8-0.3c-3.5-1.4-7.2-2.2-10.8-2.9
	c-2.8-0.5-1.9-1.8-0.9-2.9c1.9-2.2,4.1-4.2,6.1-6.2c3.1-3.1,6.5-6.1,9.1-9.7c0.5-0.7,0.8-1.4,2-1
	C1434.5,879.7,1443.1,882,1452.2,884.4z"/>
<path class="st6" d="M1323.1,891.7c5.3-6,10.7-11.4,14.9-17.9c0.9-1.4,2-1,3.2-0.8c7.2,1.4,14.4,2.8,21.6,4.2c1.9,0.4,3.8,0.6,6.2,1
	c-4.6,5.6-9.8,10.1-14.5,14.9c-0.6,0.7-1.6,0.6-2.4,0.8c-8.5,1.5-16.9,1-25.3-1.4C1325.7,892.2,1324.6,892,1323.1,891.7z"/>
<path class="st0" d="M945.1,891.7c5.3-6,10.8-11.5,14.9-17.9c0.7-1.2,1.7-1,2.8-0.8c5.7,1.1,11.5,1.9,17.2,3.2c3.5,0.8,7,1.2,11,2
	c-4.8,5.6-9.7,10.4-14.9,14.9c-1.3,1.2-3.9,1.1-5.9,1.3c-7.6,0.8-15,0-22.4-2.2C947.1,892,946.3,892,945.1,891.7z"/>
<path class="st0" d="M988.6,892.5c5.4-4.5,8.6-9.8,12.6-14.5c0.7-0.8,1.3-1.6,2.6-1.7c9.4-0.8,18.7-1.8,28-2.7
	c2.2-0.2,5.2-0.4,6.1,1.2c0.9,1.7-1.9,3.2-3.1,4.7c-3.8,4.7-8.1,8.9-12.8,12.8c-1,0.8-1.7,1.4-3.1,0.9c-8.5-2.8-17.1-2.8-25.7-0.8
	C991.9,892.7,990.7,892.5,988.6,892.5z"/>
<path class="st0" d="M1492.2,842.4c4.1-6.7,7.4-13.5,10.4-20.5c1.5-3.4,3.2-6.6,4.6-10c0.6-1.4,1.4-1.9,2.9-1.9
	c5.2,0,10.4-0.2,15.5-0.4c1.9-0.1,2.3,0.3,1.3,2.1c-5.5,9.5-10.4,19.4-16.7,28.4c-0.6,0.9-1.1,2-2.4,1.9
	C1502.9,841.7,1497.8,843.1,1492.2,842.4z"/>
<path class="st0" d="M1114.4,842.4c1.6-3,3.4-5.8,4.8-8.7c3.4-7,6.6-14,9.8-21.1c0.8-1.8,1.7-2.6,3.8-2.5c5.6,0.2,11.2,0.1,17.1,0.1
	c-1.3,2.4-2.7,4.9-4,7.3c-4.3,7.7-8.5,15.5-13.5,22.8c-0.7,1-1.3,2.1-2.7,2C1124.7,841.7,1119.7,843.1,1114.4,842.4z"/>
<path class="st6" d="M1366.6,892.5c5.3-4.6,8.6-9.8,12.5-14.5c0.8-0.9,1.5-1.6,2.9-1.7c8.9-0.8,17.8-1.7,26.7-2.5
	c1.2-0.1,2.4-0.1,3.5,0c1.4,0.1,3.2,0,3.7,1.3c0.4,1.1-1,2.2-1.9,3.2c-4.5,4.9-8.9,10-14.2,14.2c-1.5,1.2-2.6,1-4.1,0.7
	c-4.6-0.9-9.1-2.8-13.9-2.2c-4.4,0.5-8.7,1.5-13.1,1.7C1368.4,892.5,1368,892.5,1366.6,892.5z"/>
<path class="st6" d="M1090.3,877.9c1.2-1.5,2.3-3,3.5-4.5c5.9-7.2,11.4-14.7,15.8-22.8c0.8-1.5,1.7-2.2,3.5-2.2
	c4.3-0.1,8.6-0.5,12.9-0.7c0.5,1.2-0.5,1.7-1,2.3c-6.6,8.3-13.7,16.1-21.2,23.5C1100,877.2,1095.9,878.9,1090.3,877.9z"/>
<path class="st6" d="M1468.2,877.9c7.4-9.1,14.5-18,19.9-28.2c0.5-1,1.3-1.3,2.3-1.3c4.5-0.2,9-0.5,13.5-0.8c0.4,0.5,0.3,0.9,0,1.2
	c-6.9,8.6-14.2,16.8-22.1,24.5C1478,877.2,1473.9,878.9,1468.2,877.9z"/>
<path class="st6" d="M1301.4,910.5c4.7-4,9.3-7.7,13.6-11.6c2-1.8,3.9-2.4,6.4-1.8c7.8,2.1,15.8,3.3,23.9,3.5
	c-6.7,4.4-12.6,10.3-21.7,9.4C1316.4,909.4,1309.1,911.2,1301.4,910.5z"/>
<path class="st6" d="M967.3,900.6c-7,5-13.5,10.5-23.1,9.5c-6.7-0.7-13.5,1.1-20.8,0.4c3.9-3.3,7.8-6,11.1-9.5
	c3.8-4,7.6-4.3,12.7-2.9C953.7,899.9,960.5,900.7,967.3,900.6z"/>
<path class="st6" d="M969.1,909.2c4.3-3.7,8.7-6.3,12.6-9.8c0.8-0.7,2.4-0.7,3.7-0.9c5.7-0.7,11.3-1.2,17-2c4.2-0.6,8,0.5,12.3,2.1
	c-4.4,2.9-8.3,5.9-12.6,8.1c-3,1.6-6.7,1-10.1,1.2C984.5,908.5,977.1,908.8,969.1,909.2z"/>
<path class="st6" d="M1392.8,898.6c-4.6,3-8.5,6.2-13,8.2c-2.9,1.3-6.5,1-9.8,1.2c-7.4,0.5-14.9,0.8-23,1.3c2.4-1.8,4.6-3.1,6.3-4.8
	c5.8-6.4,13.6-6.5,21.3-7.1c1.6-0.1,3.2-0.2,4.8-0.5C1383.8,895.7,1388,897,1392.8,898.6z"/>
<path class="st7" d="M1034,903.6c-5.7,1.3-10.5,1.5-15.6,2.1C1023.1,900.4,1024.5,900.2,1034,903.6z"/>
<path class="st8" d="M1396.5,905.6c4.4-6.6,9.6-4,15.6-2.2C1406.4,905,1401.5,905,1396.5,905.6z"/>
<path class="st9" d="M1089.6,884.3c-3.3,2.1-5.9,4.4-9.3,5.5C1082.5,886.6,1084.6,883.5,1089.6,884.3z"/>
<path class="st10" d="M1467.8,884.3c-3.5,2.1-6.1,4.5-9.5,5.5C1460.5,886.6,1462.6,883.4,1467.8,884.3z"/>
<path class="st11" d="M1555,578.2c-1.8,8.9-7,15.8-13.4,21.6c-15.6,14.2-34.4,20.1-55.3,20.1c-52.2-0.1-104.3,0-156.5,0
	c-14.1,0-28.2,0.3-42.2-0.3c-12.6-0.6-24.1-4.6-33.5-13.6c-8.2-7.9-11.2-17.6-8.8-28.7c6.7-31.7,13.5-63.3,20.3-95
	c5.4-25.3,10.6-50.7,16.1-76c2.5-11.5,9.8-20,19.1-26.9c13.7-10.2,29.4-15.2,46.3-15.3c65.2-0.2,130.3-0.2,195.5,0
	c13.1,0,25.6,3.1,36.1,11.5c10.6,8.5,14.7,19.4,11.8,32.8c-3.5,16.3-6.7,32.6-10.3,48.8c-2.5,11.4-9.6,19.9-18.6,26.9
	c-1.3,1-2.6,2.2-3.9,3.2c-2.4,0.4-4.7,0.4-7.1,0.4c-92.2,0-184.5,0-276.7,0c-7.3,0-7.3,0-8.8,7.1c-0.2,1.2-0.4,2.3-0.7,3.5
	c-1.4,4.6-2,9.5-3,14.2c-1.1,5.6-2.9,11-3.8,16.7c-2.7,13.1-5.5,26.2-8.1,39.4c-0.3,1.7-0.5,3.4-0.5,5.2c0.1,2.4,1.5,3.6,3.6,3.1
	c3.5-0.8,6.9-0.1,10.3-0.1c36.7-0.1,73.5-0.1,110.2,0c4,0,8-0.5,11.9,0.2c7.3,7.2,18.8,7.1,27.9,1.9c3.9-2.2,7-5.4,10.2-8.3
	c1.2,1.6,0.2,2.8-0.6,4.1c-0.9,1.4-0.4,2,1.1,2c0.9,0,1.7,0,2.6,0c35.7,0,71.4,0,107.1,0c6,0,12.1,0.5,18.1,0.2
	C1552.8,576.5,1554.3,576.6,1555,578.2z"/>
<path class="st12" d="M1384.9,576.8c-3.1,1.1-6.2,0.8-9.4,0.8c-16.9-0.1-33.8,0-50.6,0c-21.6,0-43.3-0.1-64.9,0.1
	c-2.5,0-5.2-1.8-7.6,0.8c-0.8,0.9-4.6-2.5-4.7-4c-0.1-3.8,0.8-7.5,1.5-11.1c1.9-10.1,4.2-20.2,6.4-30.2c0.3-1.4,0.1-3,1.2-4.3
	c0.2,0.4,0.1-0.2,0.2,0.2c0.7,5.2,4.2,5.3,8.4,5.3c35.2-0.1,70.5-0.1,105.7-0.1c4.2,0,8.4,0.1,12.4-1.6c-0.7,6.7-2.7,13.2-4,19.9
	C1377.8,561.4,1378.9,569.7,1384.9,576.8z"/>
<path class="st12" d="M1555,578.2c-1.1-0.6-2.2-0.7-3.4-0.7c-43.2,0-86.4,0-129.5,0c-0.7,0-1.5,0-2.4,0c0.6-2.8,3.9-4.1,3.5-7.1
	c4.1-5.5,6.9-11.6,8.7-18.2c2.4-8.9,10.8-14.9,20.1-14.9c31.8,0,63.6,0,95.3,0c9.5,0,15,6.7,13,16
	C1558.5,561.6,1557.3,570,1555,578.2z"/>
<path class="st13" d="M1383.5,532.7c-1,3-3.7,2.2-5.8,2.5c-2,0.3-4.1,0.1-6.2,0.1c-36.1,0-72.2,0-108.4,0c-6.4,0-6.4,0-6.4-6.5
	c-0.1-4.5,1.7-8.6,2.7-12.8c1.3-5.7,1.8-11.6,3.8-17.1c1.2,2.5,3.3,2.9,5.9,2.9c38.2-0.1,76.4-0.1,114.6,0c2.3,0,4.4-0.8,6.7-0.9
	c-1.8,9.1-3.6,18.2-6,27.2C1384.1,529.6,1383.9,531.2,1383.5,532.7z"/>
<path class="st14" d="M1390.5,500.9c-1.2,1.5-2.7,2-4.7,2c-39.6-0.1-79.1-0.1-118.7,0c-3.2,0-4.3-1-3.8-4c0-3.7,1.3-7.2,2-10.8
	c0.2-1,0.8-1.5,1.8-1.5c0.9,0,1.7,0,2.6,0c94.7,0,189.4,0,284.1,0c1.2,0,2.6-0.5,3.7,0.6c-9.1,6.4-19.4,9.7-30.2,11.7
	c-6.4,1.2-12.9,1.3-19.4,1.3c-37.8,0-75.7,0-113.5,0C1393.1,500.2,1391.6,499.5,1390.5,500.9z"/>
<path class="st0" d="M1325.4,217.3c2,0,3.1,0.6,3.9,2c3.9,6.8,8.4,13.4,11.9,20.4c4,8,8.6,15.7,12,24c0.8,1.9,0.4,2.5-1.3,3.2
	c-11,4.3-22.1,8.7-33.1,13.1c-1.3,0.5-2.2,0.9-2.9-1c-6.8-16.6-15.4-32.3-23.6-48.2c-1.2-2.3-1-2.9,1.6-3.8
	c10-3.4,20.2-6.2,30.2-9.5C1324.6,217.5,1325.2,217.3,1325.4,217.3z"/>
<path class="st0" d="M947.6,217.3c1.6,0.2,2.8,0.5,3.7,1.9c4.7,7.9,9.6,15.6,13.6,23.9c3.4,6.9,7.2,13.5,10.2,20.6
	c0.9,2,0.5,2.7-1.4,3.4c-11,4.3-21.9,8.6-32.8,13c-1.2,0.5-2.2,1.2-3-0.8c-6.8-16.7-15.5-32.5-23.8-48.5c-1.1-2.2-1-2.8,1.6-3.6
	c10.1-3,20.2-6.3,30.2-9.5C946.5,217.5,947.1,217.4,947.6,217.3z"/>
<path class="st0" d="M1389.5,220.5c10.6-2.4,21-4.7,31.4-7.2c2.2-0.5,3.6-0.1,4.7,2c2.5,4.7,5.4,9.3,7.9,14.1
	c6,11.5,13.1,22.3,18,34.3c0.7,1.6,1,2.6-1.3,3.1c-10.9,2.2-21.8,4.4-32.6,6.8c-1.9,0.4-2.1-0.9-2.6-2.1
	c-4.4-10.7-9.3-21.1-14.7-31.3C1397,233.6,1393.3,227.2,1389.5,220.5z"/>
<path class="st0" d="M1011.6,220.5c10.6-2.4,21.1-4.8,31.6-7.2c1.9-0.4,3.1-0.1,4.3,1.7c3,4.4,5.3,9.2,7.7,13.8
	c6.1,11.4,13.2,22.3,18.1,34.3c0.4,1,1.1,1.9,1,3.1c-11.5,3-23.2,5-34.8,7.4c-1.8,0.4-1.9-1-2.3-2c-3-6.4-5.7-13-8.8-19.4
	c-4.9-10.3-10.8-20.1-16.1-30.2C1012.1,221.4,1011.8,221,1011.6,220.5z"/>
<path class="st0" d="M1434.8,213.4c2.8,0.2,5.5,1,8.2,1.5c11.5,2.5,23,4.9,34.5,7.3c1.2,0.3,1.8,0.9,2.4,1.9
	c8.9,16.2,18,32.4,25,50.1c-7.7-1.6-15.1-3.2-22.6-4.8c-6-1.3-12-2.6-18-3.8c-1.6-0.3-2.7-0.8-3.5-2.4c-7.7-16.9-16.3-33.3-26-49.1
	C1434.8,214,1434.8,213.7,1434.8,213.4z"/>
<path class="st0" d="M1056.5,213.4c3.1,0.2,5.8,0.9,8.5,1.5c11.5,2.5,23,4.9,34.5,7.3c1.2,0.3,1.9,0.8,2.4,1.8
	c8.9,16.3,18,32.4,25,50c-7.7-1.5-15.3-2.9-22.8-4.7c-5.9-1.4-11.8-2.6-17.7-3.7c-1.7-0.3-2.8-0.9-3.6-2.6
	c-6.8-14.9-14.5-29.4-22.6-43.6C1059.1,217.4,1057.8,215.5,1056.5,213.4z"/>
<path class="st0" d="M961.2,218.3c12.8,0.8,25.3,1.7,37.8,2.4c2,0.1,3.1,1,4,2.6c7.8,13.1,14.8,26.5,21.2,40.3
	c1.3,2.9,2.7,5.8,4.4,9.3c-5.5-0.8-10.6-1.1-15.6-2.2c-8.5-2-17.3-2.8-25.9-4.2c-1.3-0.2-2.1-0.6-2.6-1.9
	C977.4,248.9,969.8,233.6,961.2,218.3z"/>
<path class="st0" d="M1406.6,273c-5.6-0.8-10.7-1.1-15.6-2.3c-8.5-2-17.3-2.8-25.9-4.3c-1.3-0.2-2.1-0.6-2.7-1.8
	c-7-15.5-14.5-30.8-22.9-45.6c-0.1-0.2,0-0.4,0-0.7c12.6,0.8,25.2,1.7,37.8,2.5c1.8,0.1,2.7,0.9,3.5,2.3c7.9,13.2,15,26.9,21.5,40.9
	C1403.6,266.8,1405,269.6,1406.6,273z"/>
<path class="st0" d="M1260.6,185.1c5.9-1.8,11.5-3.4,17.2-5.2c5.3-1.7,10.7-3.4,16-5.2c1.4-0.5,2.3-0.6,3.4,0.7
	c9.2,10.6,17.5,22,25.3,33.7c1,1.4,0.7,1.8-0.9,2.3c-10.9,3.2-21.7,6.6-32.5,10c-1.4,0.4-2.1,0.2-2.9-1
	c-7.5-11.6-15.4-22.9-24.3-33.6C1261.4,186.3,1261.1,185.9,1260.6,185.1z"/>
<path class="st6" d="M882.6,185.5c3.8-2.3,7.7-2.4,11.2-3.6c7.4-2.5,14.8-4.8,22.1-7.3c1.5-0.5,2.3-0.3,3.3,0.9
	c9.2,10.5,17.4,21.8,25.1,33.4c1,1.6,0.8,2-1,2.5c-10.8,3.2-21.5,6.5-32.2,9.8c-1.3,0.4-2.1,0.5-3-0.8
	C900.3,208.3,892.2,196.5,882.6,185.5z"/>
<path class="st0" d="M930,174c7.2,1.1,14.4,1.9,21.5,3.3c6.6,1.3,13.2,2.3,19.8,3.2c1.7,0.3,3.1,0.7,4.1,2.1
	c1.8,2.4,3.9,4.7,5.6,7.2c4.9,7.2,9.7,14.5,14.5,21.8c0.4,0.6,1,1.2,0.8,2.2c-11-0.8-22.1-1.8-33.1-2.2c-5.2-0.2-7.9-2.4-10.6-6.7
	c-6.7-10.6-13.9-20.8-22.3-30.2C930,174.8,930.1,174.5,930,174z"/>
<path class="st0" d="M1375.1,214.2c-12-1.5-23.2-1.9-34.3-2.5c-5.2-0.3-7.6-2.6-10.3-6.7c-6.9-10.6-13.9-21.1-23.3-31
	c4.5,0.6,8.2,1.1,11.8,1.6c10.5,1.4,20.8,4,31.3,5.1c1.2,0.1,2,0.7,2.7,1.6c2.1,2.7,4.5,5.3,6.4,8.2
	C1364.5,198,1369.5,205.8,1375.1,214.2z"/>
<path class="st0" d="M1041.6,206.3c-8.7,1.8-17.2,3.7-25.7,5.4c-2.8,0.6-5.8,3.2-8.3,1.7c-2.2-1.3-3.2-4.5-4.7-6.8
	c-5.1-8.4-11-16.2-17-24.5c7-2,14-4,21-5.9c1.5-0.4,2.9-0.7,4.4-1.1c6.4-1.8,4.5-2.3,8.8,2.7c7.2,8.4,14.3,17,20.2,26.5
	C1040.6,204.8,1041.1,205.6,1041.6,206.3z"/>
<path class="st0" d="M1419.6,206.4c-10.6,2.5-21.3,3.6-31.4,7.2c-1.9,0.7-2.9,0-3.9-1.6c-5.3-8.9-11.3-17.4-17.2-25.8
	c-0.9-1.3-2-2.5-3.1-3.9c9.7-3.1,19.3-5.7,29-8.3c1.3-0.3,2,0,2.8,0.9C1404.1,184.8,1412.7,194.8,1419.6,206.4z"/>
<path class="st0" d="M1153.8,263.5c0.4,0.9-0.5,1.1-0.9,1.5c-4.7,3.5-9.4,6.9-14,10.4c-1.4,1.1-1.7,0.2-2.2-0.8
	c-2.5-5.8-5-11.7-7.6-17.5c-4.9-11.2-10.8-21.8-16.7-32.5c-0.9-1.7-1-2.7,0.7-3.9c2.8-2,5.4-4.3,8-6.6c1.2-1,1.8-1.4,3,0.1
	c6.2,7.9,11.6,16.4,16.6,25.1c4.2,7.3,8.1,14.7,12.1,22.1C1153.2,262.1,1153.5,262.8,1153.8,263.5z"/>
<path class="st0" d="M1515.5,276.3c-2.8-6.4-5.5-12.7-8.2-18.9c-5-11.4-11-22.2-17-33c-0.9-1.7-0.7-2.6,0.8-3.7
	c2.8-2.1,5.4-4.3,8-6.6c1.3-1.1,2-1.3,3.2,0.3c6.6,8.7,12.7,17.7,17.8,27.4c3.5,6.8,7.8,13.1,11,20.1c0.8,1.7,0.7,2.5-0.9,3.6
	C1525.3,269,1520.5,272.6,1515.5,276.3z"/>
<path class="st0" d="M1474.1,214.4c-8-0.9-15.5-3.3-23.2-4.7c-6.8-1.2-13.5-2.8-20.2-4.3c-1-0.2-1.8-0.5-2.3-1.4
	c-5.7-9.4-12.3-18.2-19.2-26.8c-0.1-0.1-0.1-0.4-0.3-1.1c8.6,2.8,17.2,4.6,25.7,7c6.2,1.8,12.6,3.1,18.8,4.8
	c1.2,0.3,2.5,0.4,3.4,1.6c5.9,7.7,11.4,15.7,16.9,23.7C1473.9,213.5,1473.9,213.9,1474.1,214.4z"/>
<path class="st0" d="M1031,176.5c8.3,2.2,16.6,4,24.7,6.3c6.5,1.9,13.2,3.4,19.7,5.1c1.7,0.5,3,1.2,4.1,2.7
	c4.7,6.6,9.5,13.1,14.2,19.7c0.9,1.2,1.6,2.5,2.6,4.1c-8.2-0.9-15.6-3.2-23.2-4.8c-6.9-1.4-13.7-2.9-20.6-4.3
	c-0.9-0.2-1.6-0.4-2.1-1.2C1044.7,194.6,1038,185.6,1031,176.5z"/>
<path class="st0" d="M849.4,152.3c14.9-1.5,29.1-1.8,43.3-2.7c1.3-0.1,2,0.6,2.7,1.4c5.6,5.7,11.3,11.3,17.2,17.3
	c-3.2,1-6.3,1.9-9.4,2.9c-7.7,2.4-15.5,4.7-23.2,7.1c-1.3,0.4-2.3,0.7-3.4-0.6C868.6,168.4,859.4,160.4,849.4,152.3z"/>
<path class="st0" d="M1227.3,152.2c12.9-1.1,25.1-1.5,37.2-2.4c5.6-0.4,9.3,1,13.2,5.1c4.1,4.4,8.2,8.9,12.8,12.8
	c-0.2,0.9-1,0.9-1.5,1c-10.3,3.1-20.6,6.2-30.9,9.4c-1.3,0.4-2.3,0.7-3.4-0.6C1246.6,168.4,1237.4,160.4,1227.3,152.2z"/>
<path class="st0" d="M1335.8,150.2c7.7,0.6,14.5,1,21.4,1.6c3.3,0.3,6.7,0.8,10,0.8c6,0.1,10.8,2.5,14.7,6.9c2.3,2.6,4.6,5.1,7.1,8
	c-7.7,2.2-15.1,4.4-22.5,6.5c-1.2,0.4-2.5,0.5-3.8,0.9c-2.7,0.9-4.6,0.4-6.5-2c-5.5-7.2-11.5-14-18.1-20.2
	C1337.5,152.2,1337,151.5,1335.8,150.2z"/>
<path class="st0" d="M1010.9,167.6c-7.7,2.2-15.2,4-22.5,6.6c-5.8,2.1-9.5,0.6-13-4.4c-4.8-7-11.1-12.8-17.6-19.2
	c4.2-0.5,7.8,0.3,11.3,0.6c8.5,0.7,17,0.9,25.5,2.3c2.2,0.4,3.9,1.5,5.6,2.9C1004.2,159.6,1007.4,163.5,1010.9,167.6z"/>
<path class="st0" d="M1344.5,172.9c-6.2-0.2-11.7-2.2-17.5-3c-7.9-1-15.7-2.8-23.6-3.8c-3-0.4-4-2.5-5.9-4
	c-4.6-3.5-6.9-9.1-11.8-11.9c0.2-1,0.7-0.9,1.1-0.9c10.8,0,21.6,0,32.4,0.1c1.1,0,2.2-0.1,3.3,0.9c7.3,6.9,14.8,13.5,21.1,21.4
	C1343.9,172,1344.1,172.3,1344.5,172.9z"/>
<path class="st0" d="M966.8,173c-6.6-0.4-12.3-2.3-18.2-3.1c-7.6-1-15.1-2.7-22.7-3.6c-3.1-0.4-4.5-2.6-6.5-4.1
	c-4.6-3.5-6.6-9.2-12.1-11.9c0.2-0.3,0.4-0.6,0.6-0.9c8.6,0,17.2-0.1,25.8,0c10.4,0.1,10.4,0.2,17.8,7.2c2.7,2.5,5.2,5.2,7.7,7.9
	C961.6,167,963.9,169.7,966.8,173z"/>
<path class="st6" d="M1090.4,190.5c2.7-0.8,5-1.3,7.2-2.2c1.3-0.5,2.1-0.1,3.2,0.7c6.5,5,11.7,11.4,17,17.6c0.8,1,0.4,1.5-0.3,2
	c-3,2.4-6,4.9-9.1,7.3c-1.5,1.2-1.6-0.6-1.9-1.1c-4.6-7-8.4-14.6-13.7-21.1C1092,192.7,1091.3,191.7,1090.4,190.5z"/>
<path class="st6" d="M1468.4,190.7c0.5-0.3,0.6-0.4,0.7-0.4c6-3.4,10.5-1.7,15,3.3c3.8,4.2,7.5,8.6,11.4,12.8
	c1.1,1.2,0.6,1.8-0.3,2.5c-2.9,2.3-5.9,4.6-8.8,7c-1,0.9-1.3,0-1.6-0.6c-1.2-1.9-2.4-3.8-3.6-5.8
	C1477.4,203,1473.4,196.6,1468.4,190.7z"/>
<path class="st6" d="M1070.4,179.5c-6.1-0.8-11.5-3-17.1-4.5c-9.8-2.6-19.8-4.6-29.3-8.1c-3.7-1.3-5.5-5-8.1-7.9
	c3.5,0.8,7.1,1.3,10.6,2.4c11.3,3.6,22.9,6,34.2,9.8C1065.3,172.7,1067.9,175.4,1070.4,179.5z"/>
<path class="st6" d="M1393.6,158.9c3.8,0.8,7.5,1.4,10.9,2.5c11.3,3.6,23,5.8,34.2,9.9c5.6,2,6.3,2.4,9.6,8.3
	c-6.4-1.6-12.6-2.9-18.6-4.9c-8.1-2.7-16.6-3.7-24.6-6.9C1400,165.8,1397.3,164.1,1393.6,158.9z"/>
<path class="st15" d="M1470.2,181.8c-6.5,3.1-5.7,3.3-11.1-4C1463,179.3,1466.4,180.5,1470.2,181.8z"/>
<path class="st16" d="M1081.2,177.9c3.8,1.4,7.3,2.6,11.1,4C1085.5,185,1086.4,185,1081.2,177.9z"/>
<path class="st11" d="M149.3,486.6c2.2-10.4,4.3-20.7,6.5-31.1c5.6-26.4,11.2-52.8,16.8-79.2c4.1-19.1,8.1-38.2,12.3-57.3
	c2.3-10.6,12.7-18.9,23.5-18.9c34,0,68,0,102,0c10.3,0,16.6,4.4,20.4,14c19.9,50.2,39.7,100.4,59.6,150.6c0.2,0.6,0.5,1.2,1.1,2.5
	c1.4-6.6,2.8-12.5,4-18.5c4.2-19.7,8.4-39.5,12.6-59.3c4.9-22.9,9.9-45.8,14.6-68.7c2.5-12,12.5-20.6,24.7-20.6
	c40.3,0,80.5,0,120.8,0c11.1,0,17.9,7.8,15.7,18.6c-3.9,19.8-8.2,39.5-12.4,59.3c-6.9,32.9-13.8,65.7-20.8,98.6c-0.8,4-1.7,8-2.6,12
	c-1.9-0.8-4-1-6-1c-68.9,0-137.9,0-206.8,0c-1.8,0-3.7,0.2-5.5,0.1c-4.2-10.1-8.4-20.2-12.6-30.3c-0.2,0-0.5,0-0.7,0
	c-2.2,10.3-4.5,20.7-6.7,31c-2.4-0.9-4.9-0.9-7.4-0.9c-49.1,0-98.2,0-147.3,0C153.2,487.6,151.1,488.1,149.3,486.6z"/>
<path class="st17" d="M298,543.7c-2,9.7-4,19.4-6.1,29.1c-1.8,8.7-3.9,17.4-5.6,26.2c-2.1,11.5-13.3,21.1-24.9,21
	c-40.2-0.3-80.5-0.2-120.7,0c-10.8,0.1-18.2-8-15.9-19.7c4-20.3,8.5-40.5,12.8-60.7c0.1-0.4,0.4-0.8,0.5-1.1
	c1.1,4.1,4.2,4.3,7.7,4.3c44.6-0.1,89.1,0,133.7-0.1c4.6,0,9.3,0.5,13.9,0.1C295.1,542.7,296.7,542.7,298,543.7z"/>
<path class="st18" d="M535.7,548.3c-3.3,15.9-6.9,31.8-10,47.7c-1.8,9.5-6.2,16.9-14.9,21.5c-3,1.6-6.2,2.4-9.6,2.4
	c-34.5-0.1-69-0.1-103.5-0.2c-8.8,0-15.2-4.8-18.6-12.5c-8.3-19.1-15.9-38.4-23.8-57.6c2.6-1.4,5.5-1,8.3-1c43.3,0,86.5-0.1,129.8,0
	c13,0,26-0.4,38.9,0.3C533.5,548.9,534.4,547.7,535.7,548.3z"/>
<path class="st19" d="M535.7,548.3c-1.8,0.3-0.8,2-1.7,3.1c-1-1.9-2.5-1.9-4.2-1.9c-56.2,0-112.5,0-168.7,0c-1.9,0-3.8,0.9-5.7,0
	c-6.1-14.7-12.1-29.5-18.2-44.2c1-1.3,2.6-1.5,4.1-1.6c1.7-0.1,3.5-0.1,5.2-0.1c63.7,0,127.4,0,191.1,0c2.4,0,5-0.7,7.4,0.4
	c-1.1,8.1-3.3,16-4.8,24C538.7,534.9,536.1,541.3,535.7,548.3z"/>
<path class="st20" d="M298,543.7c-4.9,0-9.8,0.1-14.7,0.1c-46.5-0.1-93.1-0.1-139.7-0.1c-5.3,0-5.3,0-5.4-5.3c1.6-8,3.2-16,4.9-24
	c0.9-4.2,1.9-8.3,2.9-12.5c1.6,2.4,4.1,2.4,6.6,2.4c45.7,0,91.4,0,137.2,0c3.7,0,7.3,0.2,11,0.1c2,0,3.9-0.1,4.7-2.5
	c0.2-0.6,0.9-0.9,1.6-0.5C304.3,515.6,301.3,529.7,298,543.7z"/>
<path class="st21" d="M544.8,504.1c-1.8,0.6-3.6,0.7-5.4,0.7c-64.4,0-128.9,0-193.3,0c-3,0-6-0.2-9,0.6c-2.4-5.9-4.9-11.7-7.3-17.6
	c0.7-2,2.4-1.1,3.6-1.1c23.7-0.1,47.4,0,71.1,0c46.6,0,93.2,0,139.9,0c1.5,0,3.7-1,3.8,1.9C547.1,493.8,546,498.9,544.8,504.1z"/>
<path class="st14" d="M307.1,501.5c-0.2,0.1-0.4,0.1-0.6,0.2c-1.4,1,0.2,3.9-1.3,3.8c-2.6-0.1-5.1,0.3-7.6,0
	c-1.3-0.1-2.6-0.2-3.9-0.2c-48,0-96,0-143.9,0.1c-2.7,0-4.1-0.5-3.8-3.5c0.6-5.2,1.8-10.4,3.3-15.4c52.2,0,104.4,0,156.6,0
	c1.5,0,3.7-1.1,3.9,1.9C309.5,493,307.6,497.1,307.1,501.5z"/>
<path class="st11" d="M911.2,538.3c1.1-8.1,3.2-16.1,4.8-24.1c5.3-25.5,10.7-50.9,16.1-76.4c3.7-17.6,7.6-35.2,11.3-52.9
	c1.1-5.5,2.4-10.7,6.6-14.8c4.2-4,9.1-6.2,14.9-6.2c30.8,0,61.7,0,92.5-0.1c2,0,3.2,0.7,4.3,2.2c2.1,2.9,4.5,5.6,6.5,8.5
	c1,1.4,1.8,1.6,3.2,0.7c14.4-8.3,30.1-11.5,46.6-11.4c27.2,0.2,54.3,0,81.5,0.1c11.5,0.1,22.6,2.3,32.5,8.6
	c11,7,17.8,16.6,16.7,30.1c-0.5,6.9-2.6,13.8-4,20.6c-4.3,20.3-8.6,40.5-13,60.8c-0.2,1.1-0.2,2.1,0.3,3.1c-0.7,0.7-1.6,0.5-2.5,0.5
	c-39.3-0.2-78.7,0-118-0.1c-1.3,0-2.6,0-3.9,0.1c-1.8,0.1-2.8,0.9-3.2,2.6c-0.5,2.2-0.9,4.5-1.4,6.7c-1.9,8.2-3.6,16.4-5.4,24.7
	c-2,8.1-3.3,16.4-5.2,24.5c-0.3,1.3,0.1,3.2-2,3.5c-0.3-0.7-0.3-1.5,0-2.2c1.1-8,3.1-15.9,4.8-23.8c6.2-29.6,12.4-59.2,18.9-88.7
	c1.4-6.6,2.5-12.9,0.2-19.4c-4.1-12.2-16.5-17.4-29.4-12.2c-12.2,4.9-19.8,14.4-22.8,26.9c-4.4,18-7.9,36.3-11.8,54.5
	c-0.1,0.6-0.1,1.3-0.2,1.9c-1.8,1.5-3.9,1-5.9,1c-38,0-76.1,0-114.1,0c-6.5,0-6.5,0-7.8,6.2c-1.7,8-3,16.1-5.1,24.1
	c-1.6,6.3-2.5,12.8-4.2,19.1c-0.3,1.1-0.1,2.7-1.9,2.9C910.8,539.4,910.9,538.8,911.2,538.3z"/>
<path class="st22" d="M911.2,538.3c0,0.5,0.1,1,0.1,1.6c1.1,1.3,0.6,2.7,0.4,4c-0.8,4.4-1.7,8.7-2.5,13.1c-0.8,4.3,0,5.3,4.3,5.3
	c26.6-0.1,53.2,0,79.8,0c12.9,0,25.7-0.3,38.6,0.3c1,0,2,0,2.8,0.6c-2.4,11.5-4.8,23-7.2,34.5c-0.4,2-0.8,4-1.3,6
	c-2.4,9.8-9.9,16.1-20,16.2c-31.9,0.1-63.8,0.1-95.7,0c-10.1,0-15.4-6.7-13.3-16.8c4.3-21.1,8.9-42.2,13.4-63.3
	C910.7,539.3,910.9,538.8,911.2,538.3z"/>
<path class="st23" d="M1090.4,547.4c0,0.7,0.1,1.4,0.1,2.1c1.5,3.5-0.4,6.7-0.9,10.1c-0.3,2.3-0.7,4.7-1.2,7
	c-0.4,1.9,0.5,2.6,2.2,2.7c1.3,0.1,2.6,0.1,3.9,0.1c36.5,0,73.1,0,109.6,0c3.6,0,7.3,0.4,10.6-1.5c-1.3,9-3.8,17.7-5.4,26.6
	c-0.5,2.9-1.3,5.7-1.8,8.5c-2,10.2-9.8,16.9-20.4,16.9c-19.7,0.1-39.4,0-59.1,0.1c-11.9,0-23.8-0.2-35.7,0
	c-11.3,0.2-15.9-8-13.8-17.5c3.9-17.7,7.6-35.5,11.3-53.2C1090,548.6,1090.2,548,1090.4,547.4z"/>
<path class="st24" d="M1034.6,563.2c-3.3,0.8-6.6,0.1-9.9,0.1c-36.6-0.1-73.3,0-109.9,0c-1,0-1.9,0.1-2.9,0.1
	c-3,0.2-4.7-1.9-4.1-4.8c1.2-6.2,2.4-12.4,3.6-18.6c2.1-6.5,3.1-13.3,4.5-20c0.1-0.5,0.2-1.1,0.7-1.4c1.5-1.3,3.2-1.7,5.1-1.4
	c3.3,0.5,6.7,0.4,10,0.4c32,0,64,0,96,0c3.9,0,7.8-0.6,11.7-0.3c1.6,0.1,3-0.4,3.9-1.9c0.4-0.7,0.9-1.2,1.8-0.7
	c-2.4,11.6-5,23.1-7.2,34.7C1036.8,553.9,1034.8,558.4,1034.6,563.2z"/>
<path class="st25" d="M1214.7,567.8c-0.7,2.3-2.4,2.6-4.6,2.6c-39.7-0.1-79.3-0.1-119-0.1c-4.7,0-4.6,0-3.6-4.4
	c1.2-5.4,2.1-10.9,3.1-16.4c2.3-7.8,3.4-15.8,5.2-23.7c0.3-1.4,0.3-3,1.3-4.2c0.3,0.3,0.6,0.6,0.7,1.1c1.3,4.4,1.3,4.4,5.8,4.4
	c34.4,0,68.8,0,103.2,0c3.6,0,7.1-0.3,10.7-0.1c2.2,0.1,3.5,2.2,5.6,1.8c-0.8,6.5-2.6,12.8-3.9,19.2
	C1217.7,554.6,1216.2,561.2,1214.7,567.8z"/>
<path class="st26" d="M1044.9,514.5c-0.3,0.2-1,0.5-1,0.7c0.2,3.8-3,3.1-4.7,3.1c-17.4,0.2-34.7,0.1-52.1,0.1c-20.3,0-40.7,0-61,0
	c-3.2,0-6.5-1.2-9.7,0c1.2-6,2.3-12,3.5-18c0.7-3.4,1.6-6.7,2-10.1c0.4-3,1.7-3.8,4.7-3.8c23.6,0.1,47.1,0.1,70.7,0.1
	c17.6,0,35.2,0,52.8,0c1,0.4,0.7,1.2,0.5,1.9C1048.8,497.2,1046.9,505.8,1044.9,514.5z"/>
<path class="st27" d="M1223,528.8c-1.9,0.1-0.8,2.2-2.1,3.2c-0.4-1.9,0.3-4.4-2.9-4c-1.9,0.3-3.9-0.6-5.7-0.3
	c-1.7,0.3-3.4,0.3-5.1,0.3c-34.5,0-69,0-103.4,0c-7.6,0-6.6,0.7-6.7-6.5c1.2-8.1,3.1-16.1,5.2-24.1c40-0.7,79.9-0.4,119.9-0.2
	c2.5,0,5.3-0.7,7.4,1.5c-1.6,9.1-3.6,18.2-6,27.1C1223.2,527,1223.4,527.9,1223,528.8z"/>
<path class="st28" d="M1229.4,498.9c-3.6-1-7.2-0.6-10.8-0.6c-35.1-0.1-70.2-0.1-105.4,0c-2.6,0-5.3,0.3-7.9,0.6
	c-1.3,0.1-2.3-0.3-3.2-1.3c0-3.1,1.1-6.1,1.5-9.2c0.2-1.2,1-1.9,2.3-1.8c0.8,0.1,1.5,0,2.3,0c39.6,0,79.3,0,118.9,0
	c1.6,0,3.2,0.1,4.8,0.6C1231.1,491.1,1230.3,495,1229.4,498.9z"/>
<path class="st11" d="M580.5,486.5c2.3-11,4.5-22,6.8-33c3.2-15.3,6.5-30.6,9.7-45.9c2.6-12,9.7-21,19.3-28.2
	c14.2-10.5,30.4-15.4,47.9-15.4c64.3-0.1,128.6-0.1,192.8,0c10.8,0,21.2,2.1,30.9,7.3c11.9,6.4,22.3,19.2,18.1,37.5
	c-3.6,15.8-6.7,31.7-10.1,47.5c-2.9,13.7-11.6,23.1-22.9,30.5c-2,0.7-4,0.9-6.1,0.9c-93.6,0-187.3,0-280.9,0
	C584.1,487.6,582.1,488.1,580.5,486.5z"/>
<path class="st29" d="M873.6,559.4c-1.7,27.2-15.4,45.5-40.9,55.1c-9.5,3.6-19.3,5.5-29.4,5.5c-64.6,0-129.2,0-193.9,0
	c-12.9,0-25.1-2.6-35.7-10.5c-11-8.3-15.8-19.1-12.7-32.9c2-8.8,3.4-17.7,5.8-26.4c3.1,1,6.4,1,9.6,1c36.5,0,73,0,109.5,0
	c2.7,0,5.6-1.2,8.3,0.3c-0.3,4.6-1.1,9.2-0.1,13.8c2.6,12.8,14.1,20,26.8,16.3c13.2-3.9,21.1-13.2,25.3-25.9
	c0.4-1.2,0.8-2.4,1.2-3.6c0.6,0.5,0.9,1.2,1.1,1.9c0.6,2.1,2,2.8,4.1,2.8c28,0.4,55.9,0.1,83.9,0.2c10.6,0,21.2,0,31.8,0
	C870.4,557,872.7,556.8,873.6,559.4z"/>
<path class="st30" d="M694.3,551.5c-6.4,1.2-12.9,0.6-19.4,0.6c-34.1,0.1-68.3,0-102.4,0c-2.1,0-4.4,0.4-5.6-2.1
	c1-7.7,3-15.1,4.6-22.6c1.8-8.7,3.3-17.5,5.7-26.1c1.3,3.5,4,3.7,7.2,3.7c39-0.1,77.9,0,116.9-0.1c1,0,2-0.1,2.8,0.5
	c-2.4,11.9-4.5,23.9-7.9,35.6C695.3,544.4,694.9,548,694.3,551.5z"/>
<path class="st31" d="M704.2,505.5c-1.5,0.7-3.2,0.6-4.8,0.6c-39,0-78,0-117.1,0c-4.8,0-4.8,0-5.1-4.7c0.8-5,1.7-10,3.2-14.8
	c1.9,0,3.9,0.1,5.8,0.1c94.4,0,188.8,0,283.1,0c1.2,0,2.4,0.1,3.6,0.1c-9.2,6.7-19.7,10.1-30.7,12.2c-6.4,1.2-12.9,1.3-19.4,1.3
	c-37.2,0-74.5,0-111.7,0C705.6,500.1,705.6,500.1,704.2,505.5z"/>
<path class="st32" d="M873.6,559.4c-1.4-1.3-3-1.3-4.8-1.3c-36,0-71.9,0-107.9,0.1c-3,0-5.9-0.6-8.9-0.1c-3.3,0.5-4.3-1.1-4.4-5.8
	c2.3-9,11.5-15,20.3-14.9c31.3,0.2,62.7,0.1,94,0c6.2,0,10.4,2.5,12.5,8.4c1,2.8,0.4,5.7,0.3,8.6
	C873.6,555.7,874.2,557.7,873.6,559.4L873.6,559.4z"/>
<path class="st29" d="M873.6,559.4c0.2-1.8-0.8-3.8,1.2-5.2C874.6,555.9,874.5,557.7,873.6,559.4z"/>
<path class="st0" d="M1100.5,715.3c-8.4-0.1-14.7-0.2-20.9-1.3c-4.4-0.8-6.5-3.5-7.2-7.6c-0.8-4.3-0.8-8.6-0.2-12.9
	c0.5-3.4,2-5.8,5.4-6.9c3.2-1.1,6.5-1.7,9.7-2.3c1.2-0.2,2.1,0.4,3,1c11.6,7,23.3,14.1,35,21c2.6,1.5,1.8,2.7,0.2,4.1
	c-3.4,2.9-7.5,3.7-11.7,4.3C1108.7,715.3,1103.5,715.4,1100.5,715.3z"/>
<path class="st0" d="M1231.8,675.8c4.2,0.2,7.9,0.3,11.4,1.3c3.6,1,6.1,3.2,7,6.9c1.8,7.7,2,15.4,0.2,23.1c-1,4.2-3.5,6.9-7.7,7.8
	c-7,1.5-13.9,1.5-20.9-0.1c-4.6-1-7.4-4-8.3-8.5c-1.5-7.1-1.4-14.2,0-21.2c1.2-6,5.6-8.1,11-8.8C1227.1,676,1229.7,676,1231.8,675.8
	z"/>
<path class="st0" d="M422.4,696.2c0.2-3.8,0.3-7,0.9-10.2c1-5.2,3.8-8.2,9.1-9.2c6-1.1,12.1-1.2,18.1-0.3c6.9,1.1,9.1,3.3,10.3,10.2
	c1.2,6.8,1.2,13.5-0.3,20.3c-1,4.4-3.6,7.1-7.9,8c-6.8,1.5-13.8,1.5-20.6-0.1c-5.8-1.4-8.4-4.8-9.2-11.8
	C422.6,700.6,422.5,698.1,422.4,696.2z"/>
<path class="st0" d="M363.9,696.3c5.4,0,10.2,0,14.8,1.3c4,1.2,5.8,3.4,6.2,7.7c0.3,3.6-1.2,6.2-4.8,8c-2.7,1.4-5.7,2-8.7,2.3
	c-6.3,0.6-12.5,0.8-18.7-0.4c-5.1-0.9-7.2-3.7-7.2-9.5c0-5.6,2-7.8,7.4-8.8C356.8,696.3,360.7,696.4,363.9,696.3z"/>
<path class="st0" d="M512.8,716c-3.7,0-7.4,0-11-0.8c-4.8-1.1-6.7-3.9-6.6-9.6c0.1-5.4,1.9-7.7,7-8.5c8.1-1.2,16.2-1.2,24.2,0.1
	c5.2,0.8,7.7,3.3,8.1,7.8c0.4,4.8-1.5,7.4-6.7,9.3C522.9,715.8,517.9,716,512.8,716z"/>
<path class="st6" d="M1381.5,691.5c-5.8,0-11.7-0.1-17.5,0c-2,0-2.8-0.6-2.4-2.6c0.3-1.5,0.3-3,0.6-4.5c0.8-4.3,3.3-6.8,7.7-7.6
	c7.6-1.4,15.3-1.4,22.9-0.1c5.8,1,7.8,3.5,8.3,9.4c0.1,0.8,0,1.5,0.1,2.3c0.5,2.3-0.3,3.2-2.8,3.1
	C1392.8,691.4,1387.1,691.5,1381.5,691.5z"/>
<path class="st6" d="M712.7,691.5c-5.8,0-11.7-0.1-17.5,0c-1.8,0-2.4-0.4-2.4-2.3c0.1-8.6,3.3-12.2,11.9-13c6.5-0.6,13-0.7,19.4,0.5
	c6.1,1.2,10.1,7.7,8.5,13.7c-0.4,1.5-1.5,1-2.3,1C724.4,691.6,718.6,691.5,712.7,691.5z"/>
<path class="st6" d="M152,691.5c-5.8,0-11.7,0-17.5,0c-1.6,0-2.2-0.4-2.2-2.2c0-8.7,3.3-12.4,12-13.2c6.7-0.6,13.4-0.7,20,0.7
	c5.4,1.1,9.5,8.6,7.7,13.7c-0.5,1.4-1.6,0.9-2.5,0.9C163.6,691.6,157.8,691.5,152,691.5z"/>
<path class="st0" d="M909.2,715.8c-4.4,0.2-8.8,0.1-13.2-1.1c-3-0.8-4.9-2.7-5.5-5.7c-1.9-8.7-1.9-17.4,0-26c0.7-3.5,3.1-5.3,6.5-6
	c8.2-1.5,16.3-1.5,24.5,0c3.8,0.7,6.1,2.9,6.8,6.8c1.5,8,1.6,15.9,0.1,23.8c-1,5.3-2.9,6.8-8.2,7.7c-1.3,0.2-2.6,0.5-3.8,0.5
	C914,715.9,911.6,715.8,909.2,715.8z"/>
<path d="M1423,467.9c-8,0-16,0-24,0c-1.2,0-2.9,0.5-2.4-1.8c3.3-13.6,4.9-27.7,9.8-40.9c4.4-12,13-20.3,25.8-23.3
	c13.3-3.2,25.3,6.2,26.1,19.9c0.4,7.1-1.7,13.7-3,20.4c-1.5,7.5-3.3,14.9-4.9,22.4c-0.5,2.4-1.3,3.4-4,3.3
	C1438.6,467.8,1430.8,467.9,1423,467.9z"/>
<path d="M738.8,467.9c-8,0-16-0.1-24,0.1c-2.5,0.1-2.8-0.7-2.3-2.9c2.7-11.8,4.8-23.7,8-35.3c3.7-13.3,11.8-23.4,25.6-27.3
	c16.9-4.7,29,7.3,27.7,23.8c-0.8,10-4,19.6-5.9,29.5c-0.6,3.2-1.6,6.3-2,9.5c-0.3,2.2-1.2,2.9-3.4,2.8
	C754.6,467.8,746.7,467.9,738.8,467.9z"/>
<path class="st0" d="M1425.8,454.4c-3.6,0-7.1-0.1-10.7,0c-1.7,0-2-0.6-1.7-2.1c1.5-6.4,2.8-12.9,4.4-19.2c1.8-6.9,5.7-12.3,11.9-16
	c1.3-0.8,2.7-1.4,4.2-1.8c6.4-1.8,10.5,1.2,10.7,7.8c0.2,6.8-2.4,13.1-3.5,19.7c-0.5,3.1-1.4,6.1-2,9.2c-0.3,1.7-1,2.5-3,2.4
	C1432.8,454.3,1429.3,454.4,1425.8,454.4z"/>
<path class="st0" d="M741.4,454.4c-3.5,0-6.9,0-10.4,0c-1.5,0-2.4,0.1-1.8-2.1c1.6-6.3,2.6-12.7,4.3-19c1.7-6.5,5.3-11.8,10.9-15.6
	c0.9-0.6,1.9-1.1,2.8-1.5c3.4-1.5,7-2.4,10.2,0c3.3,2.5,3.6,6.4,2.9,10.1c-1.1,6.2-2.5,12.3-3.9,18.4c-0.5,2.5-1.2,5-1.6,7.6
	c-0.3,1.7-1.1,2.1-2.6,2.1C748.5,454.4,745,454.4,741.4,454.4z"/>
</svg>
